<?xml version="1.0" standalone="no"?>
<!DOCTYPE svg PUBLIC "-//W3C//DTD SVG 1.1//EN" "http://www.w3.org/Graphics/SVG/1.1/DTD/svg11.dtd" >
<svg xmlns="http://www.w3.org/2000/svg" xmlns:xlink="http://www.w3.org/1999/xlink" version="1.1">
<metadata></metadata>
<defs>
<font id="alien_encountersitalic" horiz-adv-x="1351" >
<font-face units-per-em="2048" ascent="1638" descent="-410" />
<missing-glyph horiz-adv-x="512" />
<glyph horiz-adv-x="0" />
<glyph unicode="&#xd;" horiz-adv-x="512" />
<glyph unicode=" "  horiz-adv-x="512" />
<glyph unicode="&#x09;" horiz-adv-x="512" />
<glyph unicode="&#xa0;" horiz-adv-x="512" />
<glyph unicode="!" horiz-adv-x="430" d="M61 0l45 123h308l-45 -123h-308zM121 164l45 123h307l-45 -123h-307zM240 492l45 122h307l-45 -122h-307zM299 655l45 123h307l-45 -123h-307zM360 819l43 123h308l-43 -123h-308zM420 983l45 123h307l-45 -123h-307zM479 1147l45 123h307l-45 -123h-307zM539 1311 l45 123h307l-45 -123h-307z" />
<glyph unicode="&#x22;" horiz-adv-x="819" d="M479 1147l45 123h307l-45 -123h-307zM539 1311l45 123h307l-45 -123h-307zM573 983l45 123h154l-45 -123h-154zM868 1147l45 123h308l-45 -123h-308zM928 1311l45 123h307l-45 -123h-307zM963 983l45 123h153l-45 -123h-153z" />
<glyph unicode="'" horiz-adv-x="430" d="M479 1147l45 123h307l-45 -123h-307zM539 1311l45 123h307l-45 -123h-307zM573 983l45 123h154l-45 -123h-154z" />
<glyph unicode="," horiz-adv-x="430" d="M61 0l45 123h308l-45 -123h-308zM121 164l45 123h307l-45 -123h-307zM156 -164l45 123h153l-45 -123h-153z" />
<glyph unicode="." horiz-adv-x="430" d="M61 0l45 123h308l-45 -123h-308zM121 164l45 123h307l-45 -123h-307z" />
<glyph unicode="0" horiz-adv-x="1249" d="M123 123h1094q-98 -123 -234 -123h-717q-135 0 -143 123zM125 164q4 20 10 41l31 82h1126l-30 -82q-6 -20 -19 -41h-1118zM180 328l45 123h307l-45 -123h-307zM240 492l45 122h307l-45 -122h-307zM299 655l45 123h307l-45 -123h-307zM360 819l43 123h308l-43 -123h-308z M420 983l45 123h307l-45 -123h-307zM479 1147l29 82q8 20 20 41h1119q-4 -20 -13 -41l-28 -82h-1127zM555 1311q98 123 233 123h717q136 0 144 -123h-1094zM999 328l45 123h308l-45 -123h-308zM1059 492l45 122h307l-45 -122h-307zM1118 655l45 123h307l-45 -123h-307z M1180 819l43 123h307l-43 -123h-307zM1239 983l45 123h307l-45 -123h-307z" />
<glyph unicode="1" horiz-adv-x="634" d="M266 0l45 123h307l-45 -123h-307zM326 164l45 123h307l-45 -123h-307zM385 328l45 123h307l-45 -123h-307zM444 492l45 122h308l-45 -122h-308zM479 1147l45 123h512l-45 -123h-512zM504 655l45 123h307l-45 -123h-307zM539 1311l45 123h512l-45 -123h-512zM565 819 l43 123h307l-43 -123h-307zM625 983l45 123h307l-45 -123h-307z" />
<glyph unicode="2" horiz-adv-x="1249" d="M61 0l45 123h1127l-45 -123h-1127zM121 164l45 123h1126l-45 -123h-1126zM180 328l45 123h307l-45 -123h-307zM240 492l45 122h307l-45 -122h-307zM299 655l31 82q8 20 18 41h1106q-98 -123 -233 -123h-922zM377 819q98 123 231 123h922l-29 -82q-8 -20 -18 -41h-1106z M479 1147l45 123h1123q-4 -20 -13 -41l-28 -82h-1127zM539 1311l45 123h921q136 0 144 -123h-1110zM1239 983l45 123h307l-45 -123h-307z" />
<glyph unicode="3" horiz-adv-x="1249" d="M61 0l45 123h1111q-98 -123 -234 -123h-922zM121 164l45 123h1126l-30 -82q-6 -20 -19 -41h-1122zM479 1147l45 123h1123q-4 -20 -13 -41l-28 -82h-1127zM539 1311l45 123h921q136 0 144 -123h-1110zM709 655l45 123h512q135 0 143 -123h-700zM770 819l43 123h700 q-98 -123 -231 -123h-512zM999 328l45 123h308l-45 -123h-308zM1059 492l45 122h303q-2 -20 -10 -41l-31 -81h-307zM1239 983l45 123h307l-30 -82q-8 -20 -19 -41h-303z" />
<glyph unicode="4" horiz-adv-x="1249" d="M299 655l45 123h1126l-45 -123h-1126zM360 819l43 123h1127l-43 -123h-1127zM420 983l45 123h307l-45 -123h-307zM479 1147l45 123h307l-45 -123h-307zM539 1311l45 123h307l-45 -123h-307zM778 0l45 123h307l-45 -123h-307zM838 164l45 123h307l-45 -123h-307zM897 328 l45 123h307l-45 -123h-307zM956 492l45 122h308l-45 -122h-308zM1137 983l45 123h307l-45 -123h-307zM1196 1147l45 123h307l-45 -123h-307zM1255 1311l45 123h308l-45 -123h-308z" />
<glyph unicode="5" horiz-adv-x="1249" d="M61 0l45 123h1111q-98 -123 -234 -123h-922zM121 164l45 123h1126l-30 -82q-6 -20 -19 -41h-1122zM360 778h1106q-2 -20 -10 -41l-31 -82h-921q-133 0 -144 123zM365 819q2 20 10 41l28 82h922q135 0 145 -123h-1105zM420 983l45 123h307l-45 -123h-307zM479 1147l45 123 h1127l-45 -123h-1127zM539 1311l45 123h1126l-45 -123h-1126zM999 328l45 123h308l-45 -123h-308zM1059 492l45 122h307l-45 -122h-307z" />
<glyph unicode="6" horiz-adv-x="1249" d="M123 123h1094q-98 -123 -234 -123h-717q-135 0 -143 123zM125 164q4 20 10 41l31 82h1126l-30 -82q-6 -20 -19 -41h-1118zM180 328l45 123h307l-45 -123h-307zM240 492l45 122h307l-45 -122h-307zM299 655l45 123h1122q-2 -20 -10 -41l-31 -82h-1126zM360 819l43 123h922 q135 0 145 -123h-1110zM420 983l45 123h307l-45 -123h-307zM479 1147l29 82q8 20 20 41h1020l-45 -123h-1024zM555 1311q98 123 233 123h820l-45 -123h-1008zM999 328l45 123h308l-45 -123h-308zM1059 492l45 122h307l-45 -122h-307z" />
<glyph unicode="7" horiz-adv-x="1249" d="M479 1147l45 123h1123q-4 -20 -13 -41l-28 -82h-1127zM539 1311l45 123h921q136 0 144 -123h-1110zM881 0l45 123h307l-45 -123h-307zM940 164l45 123h307l-45 -123h-307zM999 328l45 123h308l-45 -123h-308zM1059 492l45 122h307l-45 -122h-307zM1118 655l45 123h307 l-45 -123h-307zM1180 819l43 123h307l-43 -123h-307zM1239 983l45 123h307l-45 -123h-307z" />
<glyph unicode="8" horiz-adv-x="1249" d="M123 123h1094q-98 -123 -234 -123h-717q-135 0 -143 123zM125 164q4 20 10 41l31 82h1126l-30 -82q-6 -20 -19 -41h-1118zM180 328l45 123h307l-45 -123h-307zM240 492l30 81q8 20 19 41h303l-45 -122h-307zM315 655q100 123 234 123h717q135 0 143 -123h-1094zM420 942 h1093q-98 -123 -231 -123h-717q-135 0 -145 123zM424 983q2 20 10 41l31 82h307l-45 -123h-303zM479 1147l29 82q8 20 20 41h1119q-4 -20 -13 -41l-28 -82h-1127zM555 1311q98 123 233 123h717q136 0 144 -123h-1094zM999 328l45 123h308l-45 -123h-308zM1059 492l45 122 h303q-2 -20 -10 -41l-31 -81h-307zM1239 983l45 123h307l-30 -82q-8 -20 -19 -41h-303z" />
<glyph unicode="9" horiz-adv-x="1249" d="M164 0l45 123h1008q-98 -123 -234 -123h-819zM223 164l45 123h1024l-30 -82q-6 -20 -19 -41h-1020zM301 614h1110l-45 -122h-922q-133 0 -143 122zM303 655q4 20 12 41l29 82h1126l-45 -123h-1122zM360 819l43 123h308l-43 -123h-308zM420 983l45 123h307l-45 -123h-307z M479 1147l29 82q8 20 20 41h1119q-4 -20 -13 -41l-28 -82h-1127zM555 1311q98 123 233 123h717q136 0 144 -123h-1094zM999 328l45 123h308l-45 -123h-308zM1180 819l43 123h307l-43 -123h-307zM1239 983l45 123h307l-45 -123h-307z" />
<glyph unicode=":" horiz-adv-x="430" d="M61 0l45 123h308l-45 -123h-308zM121 164l45 123h307l-45 -123h-307zM299 655l45 123h307l-45 -123h-307zM360 819l43 123h308l-43 -123h-308z" />
<glyph unicode=";" horiz-adv-x="430" d="M61 0l45 123h308l-45 -123h-308zM121 164l45 123h307l-45 -123h-307zM156 -164l45 123h153l-45 -123h-153zM299 655l45 123h307l-45 -123h-307zM360 819l43 123h308l-43 -123h-308z" />
<glyph unicode="?" horiz-adv-x="1044" d="M61 0l45 123h308l-45 -123h-308zM121 164l45 123h307l-45 -123h-307zM240 492l45 122h307l-45 -122h-307zM299 655l31 82q8 20 18 41h901q-98 -123 -233 -123h-717zM377 819q98 123 231 123h717l-29 -82q-8 -20 -18 -41h-901zM479 1147l45 123h918q-4 -20 -12 -41 l-29 -82h-922zM539 1311l45 123h716q136 0 144 -123h-905zM1034 983l45 123h307l-45 -123h-307z" />
<glyph unicode="A" horiz-adv-x="1536" d="M0 0l94 123h348l-94 -123h-348zM125 164l94 123h348l-94 -123h-348zM250 328l94 123h1176l4 -123h-1274zM375 492l94 122h1044l5 -122h-1143zM500 655l94 123h348l-94 -123h-348zM627 819l92 123h348l-92 -123h-348zM752 983l94 123h651l4 -123h-348l-2 68l-51 -68h-348z M877 1147l94 123h520l4 -123h-618zM1001 1311l95 123h389l4 -123h-488zM1153 942h348l6 -123h-348zM1159 778h348l4 -123h-348zM1178 287h348l4 -123h-348zM1184 123h348l4 -123h-348z" />
<glyph unicode="B" d="M61 0l45 123h1213q-98 -123 -234 -123h-1024zM121 164l45 123h1229l-31 -82q-6 -20 -18 -41h-1225zM180 328l45 123h307l-45 -123h-307zM240 492l45 122h307l-45 -122h-307zM299 655l45 123h1024q135 0 143 -123h-1212zM360 819l43 123h1213q-98 -123 -232 -123h-1024z M420 983l45 123h307l-45 -123h-307zM479 1147l45 123h1225q-4 -20 -12 -41l-29 -82h-1229zM539 1311l45 123h1024q135 0 143 -123h-1212zM1102 328l45 123h307l-45 -123h-307zM1161 492l45 122h303q-2 -20 -10 -41l-31 -81h-307zM1341 983l45 123h308l-31 -82 q-8 -20 -18 -41h-304z" />
<glyph unicode="C" horiz-adv-x="1249" d="M123 123h1110l-45 -123h-922q-135 0 -143 123zM125 164q4 20 10 41l31 82h1126l-45 -123h-1122zM180 328l45 123h307l-45 -123h-307zM240 492l45 122h307l-45 -122h-307zM299 655l45 123h307l-45 -123h-307zM360 819l43 123h308l-43 -123h-308zM420 983l45 123h307 l-45 -123h-307zM479 1147l29 82q8 20 20 41h1123l-45 -123h-1127zM555 1311q98 123 233 123h922l-45 -123h-1110z" />
<glyph unicode="D" d="M61 0l45 123h1213q-98 -123 -234 -123h-1024zM121 164l45 123h1229l-31 -82q-6 -20 -18 -41h-1225zM180 328l45 123h307l-45 -123h-307zM240 492l45 122h307l-45 -122h-307zM299 655l45 123h307l-45 -123h-307zM360 819l43 123h308l-43 -123h-308zM420 983l45 123h307 l-45 -123h-307zM479 1147l45 123h1225q-4 -20 -12 -41l-29 -82h-1229zM539 1311l45 123h1024q135 0 143 -123h-1212zM1102 328l45 123h307l-45 -123h-307zM1161 492l45 122h307l-45 -122h-307zM1221 655l45 123h307l-45 -123h-307zM1282 819l43 123h307l-43 -123h-307z M1341 983l45 123h308l-45 -123h-308z" />
<glyph unicode="E" horiz-adv-x="1249" d="M123 123h1110l-45 -123h-922q-135 0 -143 123zM125 164q4 20 10 41l31 82h1126l-45 -123h-1122zM180 328l45 123h307l-45 -123h-307zM240 492l45 122h307l-45 -122h-307zM299 655l45 123h1126l-45 -123h-1126zM360 819l43 123h1127l-43 -123h-1127zM420 983l45 123h307 l-45 -123h-307zM479 1147l29 82q8 20 20 41h1123l-45 -123h-1127zM555 1311q98 123 233 123h922l-45 -123h-1110z" />
<glyph unicode="F" horiz-adv-x="1249" d="M61 0l45 123h308l-45 -123h-308zM121 164l45 123h307l-45 -123h-307zM180 328l45 123h307l-45 -123h-307zM240 492l45 122h307l-45 -122h-307zM299 655l45 123h1126l-45 -123h-1126zM360 819l43 123h1127l-43 -123h-1127zM420 983l45 123h307l-45 -123h-307zM479 1147 l29 82q8 20 20 41h1123l-45 -123h-1127zM555 1311q98 123 233 123h922l-45 -123h-1110z" />
<glyph unicode="G" d="M123 123h1212l-45 -123h-1024q-135 0 -143 123zM125 164q4 20 10 41l31 82h1229l-45 -123h-1225zM180 328l45 123h307l-45 -123h-307zM240 492l45 122h307l-45 -122h-307zM299 655l45 123h307l-45 -123h-307zM360 819l43 123h308l-43 -123h-308zM420 983l45 123h307 l-45 -123h-307zM479 1147l29 82q8 20 20 41h1225l-45 -123h-1229zM555 1311q98 123 233 123h1024l-45 -123h-1212zM811 655l45 123h717l-45 -123h-717zM872 819l43 123h717l-43 -123h-717zM1102 328l45 123h307l-45 -123h-307zM1161 492l45 122h307l-45 -122h-307z" />
<glyph unicode="H" d="M61 0l45 123h308l-45 -123h-308zM121 164l45 123h307l-45 -123h-307zM180 328l45 123h307l-45 -123h-307zM240 492l45 122h307l-45 -122h-307zM299 655l45 123h1229l-45 -123h-1229zM360 819l43 123h1229l-43 -123h-1229zM420 983l45 123h307l-45 -123h-307zM479 1147 l45 123h307l-45 -123h-307zM539 1311l45 123h307l-45 -123h-307zM983 0l45 123h307l-45 -123h-307zM1042 164l45 123h308l-45 -123h-308zM1102 328l45 123h307l-45 -123h-307zM1161 492l45 122h307l-45 -122h-307zM1341 983l45 123h308l-45 -123h-308zM1401 1147l45 123h307 l-45 -123h-307zM1460 1311l45 123h307l-45 -123h-307z" />
<glyph unicode="I" horiz-adv-x="430" d="M61 0l45 123h308l-45 -123h-308zM121 164l45 123h307l-45 -123h-307zM180 328l45 123h307l-45 -123h-307zM240 492l45 122h307l-45 -122h-307zM299 655l45 123h307l-45 -123h-307zM360 819l43 123h308l-43 -123h-308zM420 983l45 123h307l-45 -123h-307zM479 1147l45 123 h307l-45 -123h-307zM539 1311l45 123h307l-45 -123h-307z" />
<glyph unicode="J" d="M123 123h1196q-98 -123 -234 -123h-819q-135 0 -143 123zM125 164q4 20 10 41l31 82h1229l-31 -82q-6 -20 -18 -41h-1221zM180 328l45 123h307l-45 -123h-307zM240 492l45 122h307l-45 -122h-307zM1102 328l45 123h307l-45 -123h-307zM1161 492l45 122h307l-45 -122h-307 zM1221 655l45 123h307l-45 -123h-307zM1282 819l43 123h307l-43 -123h-307zM1341 983l45 123h308l-45 -123h-308zM1401 1147l45 123h307l-45 -123h-307zM1460 1311l45 123h307l-45 -123h-307z" />
<glyph unicode="K" horiz-adv-x="1474" d="M61 0l45 123h398l-135 -123h-308zM121 164l45 123h516l-135 -123h-426zM180 328l45 123h1024l43 -123h-389l-43 123l-133 -123h-547zM240 492l45 122h307l-29 -79l88 79h537l45 -122h-993zM299 655l45 123h307l-45 -123h-307zM360 819l43 123h308l-43 -123h-308zM420 983 l45 123h307l-45 -123h-307zM479 1147l45 123h307l-45 -123h-307zM539 1311l45 123h307l-45 -123h-307zM694 655l135 123h390l-68 -61l23 -62h-480zM874 819l134 123h389l-133 -123h-390zM920 287h389l45 -123h-389zM979 123h389l45 -123h-389zM1055 983l133 123h389 l-133 -123h-389zM1233 1147l135 123h389l-135 -123h-389zM1411 1311l135 123h389l-135 -123h-389z" />
<glyph unicode="L" horiz-adv-x="1249" d="M123 123h1110l-45 -123h-922q-135 0 -143 123zM125 164q4 20 10 41l31 82h1126l-45 -123h-1122zM180 328l45 123h307l-45 -123h-307zM240 492l45 122h307l-45 -122h-307zM299 655l45 123h307l-45 -123h-307zM360 819l43 123h308l-43 -123h-308zM420 983l45 123h307 l-45 -123h-307zM479 1147l45 123h307l-45 -123h-307zM539 1311l45 123h307l-45 -123h-307z" />
<glyph unicode="M" horiz-adv-x="1679" d="M61 0l45 123h308l-45 -123h-308zM121 164l45 123h307l-45 -123h-307zM180 328l45 123h307l-45 -123h-307zM240 492l45 122h307l-45 -122h-307zM299 655l45 123h625l16 -123h-348l-8 62l-23 -62h-307zM360 819l43 123h547l17 -123h-607zM420 983l45 123h467l14 -123h-526z M479 1147l45 123h387l15 -123h-447zM539 1311l45 123h307l14 -123h-366zM641 614h348l15 -122h-349zM662 451h684l-105 -123h-565zM682 287h524l-104 -123h-406zM702 123h365l-104 -123h-246zM1032 492l105 122h348l-105 -122h-348zM1169 655l107 123h625l-46 -123h-307 l23 62l-53 -62h-349zM1311 0l45 123h307l-45 -123h-307zM1311 819l102 123h547l-43 -123h-606zM1370 164l45 123h307l-45 -123h-307zM1430 328l45 123h307l-45 -123h-307zM1450 983l104 123h467l-45 -123h-526zM1489 492l45 122h307l-45 -122h-307zM1589 1147l105 123h387 l-45 -123h-447zM1729 1311l104 123h307l-45 -123h-366z" />
<glyph unicode="N" d="M61 0l45 123h308l-45 -123h-308zM121 164l45 123h307l-45 -123h-307zM180 328l45 123h307l-45 -123h-307zM240 492l45 122h307l-45 -122h-307zM299 655l45 123h307l-45 -123h-307zM360 819l43 123h658l45 -123h-410l-14 41l-14 -41h-308zM420 983l45 123h541l43 -123 h-629zM479 1147l45 123h424l43 -123h-512zM539 1311l45 123h307l43 -123h-395zM711 778h409l41 -123h-409zM768 614h410l14 -41l14 41h307l-45 -122h-657zM825 451h629l-45 -123h-541zM883 287h512l-45 -123h-424zM940 123h395l-45 -123h-307zM1221 655l45 123h307l-45 -123 h-307zM1282 819l43 123h307l-43 -123h-307zM1341 983l45 123h308l-45 -123h-308zM1401 1147l45 123h307l-45 -123h-307zM1460 1311l45 123h307l-45 -123h-307z" />
<glyph unicode="O" d="M123 123h1196q-98 -123 -234 -123h-819q-135 0 -143 123zM125 164q4 20 10 41l31 82h1229l-31 -82q-6 -20 -18 -41h-1221zM180 328l45 123h307l-45 -123h-307zM240 492l45 122h307l-45 -122h-307zM299 655l45 123h307l-45 -123h-307zM360 819l43 123h308l-43 -123h-308z M420 983l45 123h307l-45 -123h-307zM479 1147l29 82q8 20 20 41h1221q-4 -20 -12 -41l-29 -82h-1229zM555 1311q98 123 233 123h820q135 0 143 -123h-1196zM1102 328l45 123h307l-45 -123h-307zM1161 492l45 122h307l-45 -122h-307zM1221 655l45 123h307l-45 -123h-307z M1282 819l43 123h307l-43 -123h-307zM1341 983l45 123h308l-45 -123h-308z" />
<glyph unicode="P" d="M61 0l45 123h308l-45 -123h-308zM121 164l45 123h307l-45 -123h-307zM180 328l45 123h307l-45 -123h-307zM240 492l45 122h307l-45 -122h-307zM299 655l45 123h1212q-98 -123 -233 -123h-1024zM360 819l43 123h1229l-28 -82q-8 -20 -19 -41h-1225zM420 983l45 123h307 l-45 -123h-307zM479 1147l45 123h1225q-4 -20 -12 -41l-29 -82h-1229zM539 1311l45 123h1024q135 0 143 -123h-1212zM1341 983l45 123h308l-45 -123h-308z" />
<glyph unicode="Q" horiz-adv-x="1556" d="M123 123h1417l-45 -123h-1229q-135 0 -143 123zM125 164q4 20 10 41l31 82h1433l-45 -123h-1429zM180 328l45 123h307l-45 -123h-307zM240 492l45 122h307l-45 -122h-307zM299 655l45 123h307l-45 -123h-307zM360 819l43 123h308l-43 -123h-308zM420 983l45 123h307 l-45 -123h-307zM479 1147l29 82q8 20 20 41h1221q-4 -20 -12 -41l-29 -82h-1229zM555 1311q98 123 233 123h820q135 0 143 -123h-1196zM1102 328l45 123h307l-45 -123h-307zM1161 492l45 122h307l-45 -122h-307zM1221 655l45 123h307l-45 -123h-307zM1282 819l43 123h307 l-43 -123h-307zM1341 983l45 123h308l-45 -123h-308z" />
<glyph unicode="R" d="M61 0l45 123h308l-45 -123h-308zM121 164l45 123h307l-45 -123h-307zM180 328l45 123h307l-45 -123h-307zM240 492l45 122h307l-45 -122h-307zM299 655l45 123h1024q135 0 143 -123h-1212zM360 819l43 123h1213q-98 -123 -232 -123h-1024zM420 983l45 123h307l-45 -123 h-307zM479 1147l45 123h1225q-4 -20 -12 -41l-29 -82h-1229zM539 1311l45 123h1024q135 0 143 -123h-1212zM983 0l45 123h307l-45 -123h-307zM1042 164l45 123h308l-45 -123h-308zM1102 328l45 123h307l-45 -123h-307zM1161 492l45 122h303q-2 -20 -10 -41l-31 -81h-307z M1341 983l45 123h308l-31 -82q-8 -20 -18 -41h-304z" />
<glyph unicode="S" d="M61 0l45 123h1213q-98 -123 -234 -123h-1024zM121 164l45 123h1229l-31 -82q-6 -20 -18 -41h-1225zM360 778h1209q-2 -20 -10 -41l-31 -82h-1024q-133 0 -144 123zM365 819q2 20 10 41l28 82h1024q136 0 146 -123h-1208zM420 983l45 123h307l-45 -123h-307zM479 1147 l29 82q8 20 20 41h1225l-45 -123h-1229zM555 1311q98 123 233 123h1024l-45 -123h-1212zM1102 328l45 123h307l-45 -123h-307zM1161 492l45 122h307l-45 -122h-307z" />
<glyph unicode="T" d="M479 1147l45 123h1229l-45 -123h-1229zM539 1311l45 123h1228l-45 -123h-1228zM543 0l45 123h307l-45 -123h-307zM602 164l45 123h307l-45 -123h-307zM662 328l45 123h307l-45 -123h-307zM721 492l45 122h307l-45 -122h-307zM780 655l45 123h308l-46 -123h-307zM842 819 l43 123h307l-43 -123h-307zM901 983l45 123h307l-45 -123h-307z" />
<glyph unicode="U" d="M123 123h1196q-98 -123 -234 -123h-819q-135 0 -143 123zM125 164q4 20 10 41l31 82h1229l-31 -82q-6 -20 -18 -41h-1221zM180 328l45 123h307l-45 -123h-307zM240 492l45 122h307l-45 -122h-307zM299 655l45 123h307l-45 -123h-307zM360 819l43 123h308l-43 -123h-308z M420 983l45 123h307l-45 -123h-307zM479 1147l45 123h307l-45 -123h-307zM539 1311l45 123h307l-45 -123h-307zM1102 328l45 123h307l-45 -123h-307zM1161 492l45 122h307l-45 -122h-307zM1221 655l45 123h307l-45 -123h-307zM1282 819l43 123h307l-43 -123h-307zM1341 983 l45 123h308l-45 -123h-308zM1401 1147l45 123h307l-45 -123h-307zM1460 1311l45 123h307l-45 -123h-307z" />
<glyph unicode="V" horiz-adv-x="1536" d="M522 1434h348l4 -123h-348zM528 1270h349l4 -123h-349zM535 1106h348l4 -123h-348zM539 942h348l6 -123h-348zM545 778h348l4 -123h-348zM551 614h348l4 -122h-348zM557 451h348l2 -68l51 68h349l-95 -123h-651zM563 287h619l-95 -123h-520zM569 123h488l-94 -123h-390z M989 492l94 122h349l-95 -122h-348zM1114 655l94 123h348l-94 -123h-348zM1241 819l92 123h348l-92 -123h-348zM1366 983l94 123h348l-94 -123h-348zM1491 1147l94 123h348l-94 -123h-348zM1616 1311l94 123h348l-94 -123h-348z" />
<glyph unicode="W" horiz-adv-x="2150" d="M522 1434h348l4 -123h-348zM528 1270h349l4 -123h-349zM535 1106h348l4 -123h-348zM539 942h348l6 -123h-348zM545 778h348l4 -123h-348zM551 614h348l4 -122h-348zM557 451h348l2 -68l51 68h562l2 -68l51 68h348l-94 -123h-1266zM563 287h1233l-94 -123h-520l-4 119 l-91 -119h-520zM569 123h488l-94 -123h-390zM989 492l94 122h430l5 -122h-529zM1114 655l47 62l-2 61h397l-47 -61l2 -62h-397zM1137 1434h348l4 -123h-348zM1143 1270h348l4 -117l90 117h348l-94 -123h-692zM1149 1106h659l-94 -123h-561zM1153 942h528l-92 -123h-430z M1184 123h487l-94 -123h-389zM1604 492l94 122h348l-94 -122h-348zM1616 1311l94 123h348l-94 -123h-348zM1729 655l94 123h348l-94 -123h-348zM1855 819l93 123h348l-92 -123h-349zM1980 983l95 123h348l-94 -123h-349zM2105 1147l95 123h348l-94 -123h-349zM2230 1311 l94 123h349l-95 -123h-348z" />
<glyph unicode="X" horiz-adv-x="1556" d="M61 0l136 123h389l-135 -123h-390zM240 164l135 123h389l-135 -123h-389zM420 328l133 123h778l43 -123h-389l-43 123l-133 -123h-389zM584 1434h389l45 -123h-389zM598 492l135 122h537l45 -122h-717zM643 1270h389l45 -123h-389zM705 1106h389l43 -123l133 123h389 l-133 -123h-778zM762 942h717l-133 -123h-537zM776 655l68 62l-23 61h479l-67 -61l22 -62h-479zM1001 287h390l45 -123h-389zM1061 123h389l45 -123h-389zM1315 1147l135 123h389l-135 -123h-389zM1493 1311l135 123h389l-135 -123h-389z" />
<glyph unicode="Y" horiz-adv-x="1556" d="M584 1434h389l45 -123h-389zM625 0l45 123h307l-45 -123h-307zM643 1270h389l45 -123h-389zM684 164l45 123h307l-45 -123h-307zM705 1106h389l43 -123l133 123h389l-133 -123h-778zM743 328l45 123h308l-45 -123h-308zM762 942h717l-133 -123h-537zM803 492l45 122h307 l-45 -122h-307zM821 778h479l-131 -123h-307zM1315 1147l135 123h389l-135 -123h-389zM1493 1311l135 123h389l-135 -123h-389z" />
<glyph unicode="Z" d="M61 0l45 123h1229l-45 -123h-1229zM121 164l45 123h1229l-45 -123h-1229zM217 328l156 123h450l-155 -123h-451zM424 492l158 122h450l-158 -122h-450zM479 1147l45 123h1229l-45 -123h-1229zM539 1311l45 123h1228l-45 -123h-1228zM633 655l155 123h451l-156 -123h-450z M842 819l155 123h451l-156 -123h-450zM1051 983l155 123h451l-156 -123h-450z" />
<glyph unicode="a" horiz-adv-x="1536" d="M0 0l94 123h348l-94 -123h-348zM125 164l94 123h348l-94 -123h-348zM250 328l94 123h1176l4 -123h-1274zM375 492l94 122h1044l5 -122h-1143zM500 655l94 123h348l-94 -123h-348zM627 819l92 123h348l-92 -123h-348zM752 983l94 123h651l4 -123h-348l-2 68l-51 -68h-348z M877 1147l94 123h520l4 -123h-618zM1001 1311l95 123h389l4 -123h-488zM1153 942h348l6 -123h-348zM1159 778h348l4 -123h-348zM1178 287h348l4 -123h-348zM1184 123h348l4 -123h-348z" />
<glyph unicode="b" d="M61 0l45 123h1213q-98 -123 -234 -123h-1024zM121 164l45 123h1229l-31 -82q-6 -20 -18 -41h-1225zM180 328l45 123h307l-45 -123h-307zM240 492l45 122h307l-45 -122h-307zM299 655l45 123h1024q135 0 143 -123h-1212zM360 819l43 123h1213q-98 -123 -232 -123h-1024z M420 983l45 123h307l-45 -123h-307zM479 1147l45 123h1225q-4 -20 -12 -41l-29 -82h-1229zM539 1311l45 123h1024q135 0 143 -123h-1212zM1102 328l45 123h307l-45 -123h-307zM1161 492l45 122h303q-2 -20 -10 -41l-31 -81h-307zM1341 983l45 123h308l-31 -82 q-8 -20 -18 -41h-304z" />
<glyph unicode="c" horiz-adv-x="1249" d="M123 123h1110l-45 -123h-922q-135 0 -143 123zM125 164q4 20 10 41l31 82h1126l-45 -123h-1122zM180 328l45 123h307l-45 -123h-307zM240 492l45 122h307l-45 -122h-307zM299 655l45 123h307l-45 -123h-307zM360 819l43 123h308l-43 -123h-308zM420 983l45 123h307 l-45 -123h-307zM479 1147l29 82q8 20 20 41h1123l-45 -123h-1127zM555 1311q98 123 233 123h922l-45 -123h-1110z" />
<glyph unicode="d" d="M61 0l45 123h1213q-98 -123 -234 -123h-1024zM121 164l45 123h1229l-31 -82q-6 -20 -18 -41h-1225zM180 328l45 123h307l-45 -123h-307zM240 492l45 122h307l-45 -122h-307zM299 655l45 123h307l-45 -123h-307zM360 819l43 123h308l-43 -123h-308zM420 983l45 123h307 l-45 -123h-307zM479 1147l45 123h1225q-4 -20 -12 -41l-29 -82h-1229zM539 1311l45 123h1024q135 0 143 -123h-1212zM1102 328l45 123h307l-45 -123h-307zM1161 492l45 122h307l-45 -122h-307zM1221 655l45 123h307l-45 -123h-307zM1282 819l43 123h307l-43 -123h-307z M1341 983l45 123h308l-45 -123h-308z" />
<glyph unicode="e" horiz-adv-x="1249" d="M123 123h1110l-45 -123h-922q-135 0 -143 123zM125 164q4 20 10 41l31 82h1126l-45 -123h-1122zM180 328l45 123h307l-45 -123h-307zM240 492l45 122h307l-45 -122h-307zM299 655l45 123h1126l-45 -123h-1126zM360 819l43 123h1127l-43 -123h-1127zM420 983l45 123h307 l-45 -123h-307zM479 1147l29 82q8 20 20 41h1123l-45 -123h-1127zM555 1311q98 123 233 123h922l-45 -123h-1110z" />
<glyph unicode="f" horiz-adv-x="1249" d="M61 0l45 123h308l-45 -123h-308zM121 164l45 123h307l-45 -123h-307zM180 328l45 123h307l-45 -123h-307zM240 492l45 122h307l-45 -122h-307zM299 655l45 123h1126l-45 -123h-1126zM360 819l43 123h1127l-43 -123h-1127zM420 983l45 123h307l-45 -123h-307zM479 1147 l29 82q8 20 20 41h1123l-45 -123h-1127zM555 1311q98 123 233 123h922l-45 -123h-1110z" />
<glyph unicode="g" d="M123 123h1212l-45 -123h-1024q-135 0 -143 123zM125 164q4 20 10 41l31 82h1229l-45 -123h-1225zM180 328l45 123h307l-45 -123h-307zM240 492l45 122h307l-45 -122h-307zM299 655l45 123h307l-45 -123h-307zM360 819l43 123h308l-43 -123h-308zM420 983l45 123h307 l-45 -123h-307zM479 1147l29 82q8 20 20 41h1225l-45 -123h-1229zM555 1311q98 123 233 123h1024l-45 -123h-1212zM811 655l45 123h717l-45 -123h-717zM872 819l43 123h717l-43 -123h-717zM1102 328l45 123h307l-45 -123h-307zM1161 492l45 122h307l-45 -122h-307z" />
<glyph unicode="h" d="M61 0l45 123h308l-45 -123h-308zM121 164l45 123h307l-45 -123h-307zM180 328l45 123h307l-45 -123h-307zM240 492l45 122h307l-45 -122h-307zM299 655l45 123h1229l-45 -123h-1229zM360 819l43 123h1229l-43 -123h-1229zM420 983l45 123h307l-45 -123h-307zM479 1147 l45 123h307l-45 -123h-307zM539 1311l45 123h307l-45 -123h-307zM983 0l45 123h307l-45 -123h-307zM1042 164l45 123h308l-45 -123h-308zM1102 328l45 123h307l-45 -123h-307zM1161 492l45 122h307l-45 -122h-307zM1341 983l45 123h308l-45 -123h-308zM1401 1147l45 123h307 l-45 -123h-307zM1460 1311l45 123h307l-45 -123h-307z" />
<glyph unicode="i" horiz-adv-x="430" d="M61 0l45 123h308l-45 -123h-308zM121 164l45 123h307l-45 -123h-307zM180 328l45 123h307l-45 -123h-307zM240 492l45 122h307l-45 -122h-307zM299 655l45 123h307l-45 -123h-307zM360 819l43 123h308l-43 -123h-308zM420 983l45 123h307l-45 -123h-307zM479 1147l45 123 h307l-45 -123h-307zM539 1311l45 123h307l-45 -123h-307z" />
<glyph unicode="j" d="M123 123h1196q-98 -123 -234 -123h-819q-135 0 -143 123zM125 164q4 20 10 41l31 82h1229l-31 -82q-6 -20 -18 -41h-1221zM180 328l45 123h307l-45 -123h-307zM240 492l45 122h307l-45 -122h-307zM1102 328l45 123h307l-45 -123h-307zM1161 492l45 122h307l-45 -122h-307 zM1221 655l45 123h307l-45 -123h-307zM1282 819l43 123h307l-43 -123h-307zM1341 983l45 123h308l-45 -123h-308zM1401 1147l45 123h307l-45 -123h-307zM1460 1311l45 123h307l-45 -123h-307z" />
<glyph unicode="k" horiz-adv-x="1474" d="M61 0l45 123h398l-135 -123h-308zM121 164l45 123h516l-135 -123h-426zM180 328l45 123h1024l43 -123h-389l-43 123l-133 -123h-547zM240 492l45 122h307l-29 -79l88 79h537l45 -122h-993zM299 655l45 123h307l-45 -123h-307zM360 819l43 123h308l-43 -123h-308zM420 983 l45 123h307l-45 -123h-307zM479 1147l45 123h307l-45 -123h-307zM539 1311l45 123h307l-45 -123h-307zM694 655l135 123h390l-68 -61l23 -62h-480zM874 819l134 123h389l-133 -123h-390zM920 287h389l45 -123h-389zM979 123h389l45 -123h-389zM1055 983l133 123h389 l-133 -123h-389zM1233 1147l135 123h389l-135 -123h-389zM1411 1311l135 123h389l-135 -123h-389z" />
<glyph unicode="l" horiz-adv-x="1249" d="M123 123h1110l-45 -123h-922q-135 0 -143 123zM125 164q4 20 10 41l31 82h1126l-45 -123h-1122zM180 328l45 123h307l-45 -123h-307zM240 492l45 122h307l-45 -122h-307zM299 655l45 123h307l-45 -123h-307zM360 819l43 123h308l-43 -123h-308zM420 983l45 123h307 l-45 -123h-307zM479 1147l45 123h307l-45 -123h-307zM539 1311l45 123h307l-45 -123h-307z" />
<glyph unicode="m" horiz-adv-x="1679" d="M61 0l45 123h308l-45 -123h-308zM121 164l45 123h307l-45 -123h-307zM180 328l45 123h307l-45 -123h-307zM240 492l45 122h307l-45 -122h-307zM299 655l45 123h625l16 -123h-348l-8 62l-23 -62h-307zM360 819l43 123h547l17 -123h-607zM420 983l45 123h467l14 -123h-526z M479 1147l45 123h387l15 -123h-447zM539 1311l45 123h307l14 -123h-366zM641 614h348l15 -122h-349zM662 451h684l-105 -123h-565zM682 287h524l-104 -123h-406zM702 123h365l-104 -123h-246zM1032 492l105 122h348l-105 -122h-348zM1169 655l107 123h625l-46 -123h-307 l23 62l-53 -62h-349zM1311 0l45 123h307l-45 -123h-307zM1311 819l102 123h547l-43 -123h-606zM1370 164l45 123h307l-45 -123h-307zM1430 328l45 123h307l-45 -123h-307zM1450 983l104 123h467l-45 -123h-526zM1489 492l45 122h307l-45 -122h-307zM1589 1147l105 123h387 l-45 -123h-447zM1729 1311l104 123h307l-45 -123h-366z" />
<glyph unicode="n" d="M61 0l45 123h308l-45 -123h-308zM121 164l45 123h307l-45 -123h-307zM180 328l45 123h307l-45 -123h-307zM240 492l45 122h307l-45 -122h-307zM299 655l45 123h307l-45 -123h-307zM360 819l43 123h658l45 -123h-410l-14 41l-14 -41h-308zM420 983l45 123h541l43 -123 h-629zM479 1147l45 123h424l43 -123h-512zM539 1311l45 123h307l43 -123h-395zM711 778h409l41 -123h-409zM768 614h410l14 -41l14 41h307l-45 -122h-657zM825 451h629l-45 -123h-541zM883 287h512l-45 -123h-424zM940 123h395l-45 -123h-307zM1221 655l45 123h307l-45 -123 h-307zM1282 819l43 123h307l-43 -123h-307zM1341 983l45 123h308l-45 -123h-308zM1401 1147l45 123h307l-45 -123h-307zM1460 1311l45 123h307l-45 -123h-307z" />
<glyph unicode="o" d="M123 123h1196q-98 -123 -234 -123h-819q-135 0 -143 123zM125 164q4 20 10 41l31 82h1229l-31 -82q-6 -20 -18 -41h-1221zM180 328l45 123h307l-45 -123h-307zM240 492l45 122h307l-45 -122h-307zM299 655l45 123h307l-45 -123h-307zM360 819l43 123h308l-43 -123h-308z M420 983l45 123h307l-45 -123h-307zM479 1147l29 82q8 20 20 41h1221q-4 -20 -12 -41l-29 -82h-1229zM555 1311q98 123 233 123h820q135 0 143 -123h-1196zM1102 328l45 123h307l-45 -123h-307zM1161 492l45 122h307l-45 -122h-307zM1221 655l45 123h307l-45 -123h-307z M1282 819l43 123h307l-43 -123h-307zM1341 983l45 123h308l-45 -123h-308z" />
<glyph unicode="p" d="M61 0l45 123h308l-45 -123h-308zM121 164l45 123h307l-45 -123h-307zM180 328l45 123h307l-45 -123h-307zM240 492l45 122h307l-45 -122h-307zM299 655l45 123h1212q-98 -123 -233 -123h-1024zM360 819l43 123h1229l-28 -82q-8 -20 -19 -41h-1225zM420 983l45 123h307 l-45 -123h-307zM479 1147l45 123h1225q-4 -20 -12 -41l-29 -82h-1229zM539 1311l45 123h1024q135 0 143 -123h-1212zM1341 983l45 123h308l-45 -123h-308z" />
<glyph unicode="q" horiz-adv-x="1556" d="M123 123h1417l-45 -123h-1229q-135 0 -143 123zM125 164q4 20 10 41l31 82h1433l-45 -123h-1429zM180 328l45 123h307l-45 -123h-307zM240 492l45 122h307l-45 -122h-307zM299 655l45 123h307l-45 -123h-307zM360 819l43 123h308l-43 -123h-308zM420 983l45 123h307 l-45 -123h-307zM479 1147l29 82q8 20 20 41h1221q-4 -20 -12 -41l-29 -82h-1229zM555 1311q98 123 233 123h820q135 0 143 -123h-1196zM1102 328l45 123h307l-45 -123h-307zM1161 492l45 122h307l-45 -122h-307zM1221 655l45 123h307l-45 -123h-307zM1282 819l43 123h307 l-43 -123h-307zM1341 983l45 123h308l-45 -123h-308z" />
<glyph unicode="r" d="M61 0l45 123h308l-45 -123h-308zM121 164l45 123h307l-45 -123h-307zM180 328l45 123h307l-45 -123h-307zM240 492l45 122h307l-45 -122h-307zM299 655l45 123h1024q135 0 143 -123h-1212zM360 819l43 123h1213q-98 -123 -232 -123h-1024zM420 983l45 123h307l-45 -123 h-307zM479 1147l45 123h1225q-4 -20 -12 -41l-29 -82h-1229zM539 1311l45 123h1024q135 0 143 -123h-1212zM983 0l45 123h307l-45 -123h-307zM1042 164l45 123h308l-45 -123h-308zM1102 328l45 123h307l-45 -123h-307zM1161 492l45 122h303q-2 -20 -10 -41l-31 -81h-307z M1341 983l45 123h308l-31 -82q-8 -20 -18 -41h-304z" />
<glyph unicode="s" d="M61 0l45 123h1213q-98 -123 -234 -123h-1024zM121 164l45 123h1229l-31 -82q-6 -20 -18 -41h-1225zM360 778h1209q-2 -20 -10 -41l-31 -82h-1024q-133 0 -144 123zM365 819q2 20 10 41l28 82h1024q136 0 146 -123h-1208zM420 983l45 123h307l-45 -123h-307zM479 1147 l29 82q8 20 20 41h1225l-45 -123h-1229zM555 1311q98 123 233 123h1024l-45 -123h-1212zM1102 328l45 123h307l-45 -123h-307zM1161 492l45 122h307l-45 -122h-307z" />
<glyph unicode="t" d="M479 1147l45 123h1229l-45 -123h-1229zM539 1311l45 123h1228l-45 -123h-1228zM543 0l45 123h307l-45 -123h-307zM602 164l45 123h307l-45 -123h-307zM662 328l45 123h307l-45 -123h-307zM721 492l45 122h307l-45 -122h-307zM780 655l45 123h308l-46 -123h-307zM842 819 l43 123h307l-43 -123h-307zM901 983l45 123h307l-45 -123h-307z" />
<glyph unicode="u" d="M123 123h1196q-98 -123 -234 -123h-819q-135 0 -143 123zM125 164q4 20 10 41l31 82h1229l-31 -82q-6 -20 -18 -41h-1221zM180 328l45 123h307l-45 -123h-307zM240 492l45 122h307l-45 -122h-307zM299 655l45 123h307l-45 -123h-307zM360 819l43 123h308l-43 -123h-308z M420 983l45 123h307l-45 -123h-307zM479 1147l45 123h307l-45 -123h-307zM539 1311l45 123h307l-45 -123h-307zM1102 328l45 123h307l-45 -123h-307zM1161 492l45 122h307l-45 -122h-307zM1221 655l45 123h307l-45 -123h-307zM1282 819l43 123h307l-43 -123h-307zM1341 983 l45 123h308l-45 -123h-308zM1401 1147l45 123h307l-45 -123h-307zM1460 1311l45 123h307l-45 -123h-307z" />
<glyph unicode="v" horiz-adv-x="1536" d="M522 1434h348l4 -123h-348zM528 1270h349l4 -123h-349zM535 1106h348l4 -123h-348zM539 942h348l6 -123h-348zM545 778h348l4 -123h-348zM551 614h348l4 -122h-348zM557 451h348l2 -68l51 68h349l-95 -123h-651zM563 287h619l-95 -123h-520zM569 123h488l-94 -123h-390z M989 492l94 122h349l-95 -122h-348zM1114 655l94 123h348l-94 -123h-348zM1241 819l92 123h348l-92 -123h-348zM1366 983l94 123h348l-94 -123h-348zM1491 1147l94 123h348l-94 -123h-348zM1616 1311l94 123h348l-94 -123h-348z" />
<glyph unicode="w" horiz-adv-x="2150" d="M522 1434h348l4 -123h-348zM528 1270h349l4 -123h-349zM535 1106h348l4 -123h-348zM539 942h348l6 -123h-348zM545 778h348l4 -123h-348zM551 614h348l4 -122h-348zM557 451h348l2 -68l51 68h562l2 -68l51 68h348l-94 -123h-1266zM563 287h1233l-94 -123h-520l-4 119 l-91 -119h-520zM569 123h488l-94 -123h-390zM989 492l94 122h430l5 -122h-529zM1114 655l47 62l-2 61h397l-47 -61l2 -62h-397zM1137 1434h348l4 -123h-348zM1143 1270h348l4 -117l90 117h348l-94 -123h-692zM1149 1106h659l-94 -123h-561zM1153 942h528l-92 -123h-430z M1184 123h487l-94 -123h-389zM1604 492l94 122h348l-94 -122h-348zM1616 1311l94 123h348l-94 -123h-348zM1729 655l94 123h348l-94 -123h-348zM1855 819l93 123h348l-92 -123h-349zM1980 983l95 123h348l-94 -123h-349zM2105 1147l95 123h348l-94 -123h-349zM2230 1311 l94 123h349l-95 -123h-348z" />
<glyph unicode="x" horiz-adv-x="1556" d="M61 0l136 123h389l-135 -123h-390zM240 164l135 123h389l-135 -123h-389zM420 328l133 123h778l43 -123h-389l-43 123l-133 -123h-389zM584 1434h389l45 -123h-389zM598 492l135 122h537l45 -122h-717zM643 1270h389l45 -123h-389zM705 1106h389l43 -123l133 123h389 l-133 -123h-778zM762 942h717l-133 -123h-537zM776 655l68 62l-23 61h479l-67 -61l22 -62h-479zM1001 287h390l45 -123h-389zM1061 123h389l45 -123h-389zM1315 1147l135 123h389l-135 -123h-389zM1493 1311l135 123h389l-135 -123h-389z" />
<glyph unicode="y" horiz-adv-x="1556" d="M584 1434h389l45 -123h-389zM625 0l45 123h307l-45 -123h-307zM643 1270h389l45 -123h-389zM684 164l45 123h307l-45 -123h-307zM705 1106h389l43 -123l133 123h389l-133 -123h-778zM743 328l45 123h308l-45 -123h-308zM762 942h717l-133 -123h-537zM803 492l45 122h307 l-45 -122h-307zM821 778h479l-131 -123h-307zM1315 1147l135 123h389l-135 -123h-389zM1493 1311l135 123h389l-135 -123h-389z" />
<glyph unicode="z" d="M61 0l45 123h1229l-45 -123h-1229zM121 164l45 123h1229l-45 -123h-1229zM217 328l156 123h450l-155 -123h-451zM424 492l158 122h450l-158 -122h-450zM479 1147l45 123h1229l-45 -123h-1229zM539 1311l45 123h1228l-45 -123h-1228zM633 655l155 123h451l-156 -123h-450z M842 819l155 123h451l-156 -123h-450zM1051 983l155 123h451l-156 -123h-450z" />
<glyph unicode="&#x2000;" horiz-adv-x="717" />
<glyph unicode="&#x2001;" horiz-adv-x="1434" />
<glyph unicode="&#x2002;" horiz-adv-x="717" />
<glyph unicode="&#x2003;" horiz-adv-x="1434" />
<glyph unicode="&#x2004;" horiz-adv-x="478" />
<glyph unicode="&#x2005;" horiz-adv-x="358" />
<glyph unicode="&#x2006;" horiz-adv-x="239" />
<glyph unicode="&#x2007;" horiz-adv-x="239" />
<glyph unicode="&#x2008;" horiz-adv-x="179" />
<glyph unicode="&#x2009;" horiz-adv-x="286" />
<glyph unicode="&#x200a;" horiz-adv-x="79" />
<glyph unicode="&#x2018;" horiz-adv-x="430" d="M420 983l45 123h307l-45 -123h-307zM479 1147l45 123h307l-45 -123h-307zM539 1311l45 123h153l-45 -123h-153z" />
<glyph unicode="&#x2019;" horiz-adv-x="430" d="M479 1147l45 123h307l-45 -123h-307zM539 1311l45 123h307l-45 -123h-307zM573 983l45 123h154l-45 -123h-154z" />
<glyph unicode="&#x201a;" horiz-adv-x="430" d="M61 0l45 123h308l-45 -123h-308zM121 164l45 123h307l-45 -123h-307zM156 -164l45 123h153l-45 -123h-153z" />
<glyph unicode="&#x201c;" horiz-adv-x="819" d="M420 983l45 123h307l-45 -123h-307zM479 1147l45 123h307l-45 -123h-307zM539 1311l45 123h153l-45 -123h-153zM809 983l45 123h307l-45 -123h-307zM868 1147l45 123h308l-45 -123h-308zM928 1311l45 123h153l-45 -123h-153z" />
<glyph unicode="&#x201d;" horiz-adv-x="819" d="M479 1147l45 123h307l-45 -123h-307zM539 1311l45 123h307l-45 -123h-307zM573 983l45 123h154l-45 -123h-154zM868 1147l45 123h308l-45 -123h-308zM928 1311l45 123h307l-45 -123h-307zM963 983l45 123h153l-45 -123h-153z" />
<glyph unicode="&#x201e;" horiz-adv-x="819" d="M61 0l45 123h308l-45 -123h-308zM121 164l45 123h307l-45 -123h-307zM156 -164l45 123h153l-45 -123h-153zM451 0l45 123h307l-45 -123h-307zM510 164l45 123h307l-45 -123h-307zM545 -164l45 123h153l-45 -123h-153z" />
<glyph unicode="&#x202f;" horiz-adv-x="286" />
<glyph unicode="&#x205f;" horiz-adv-x="358" />
<glyph unicode="&#x25fc;" horiz-adv-x="1433" d="M0 0v1434h1434v-1434h-1434z" />
</font>
</defs>
</svg>
