<?xml version="1.0" standalone="no"?>
<!DOCTYPE svg PUBLIC "-//W3C//DTD SVG 1.1//EN" "http://www.w3.org/Graphics/SVG/1.1/DTD/svg11.dtd" >
<svg xmlns="http://www.w3.org/2000/svg" xmlns:xlink="http://www.w3.org/1999/xlink" version="1.1">
<metadata></metadata>
<defs>
<font id="djb_miss_molly_brownregular" horiz-adv-x="1014" >
<font-face units-per-em="2048" ascent="1638" descent="-410" />
<missing-glyph horiz-adv-x="903" />
<glyph horiz-adv-x="0" />
<glyph unicode="&#xd;" horiz-adv-x="508" />
<glyph unicode=" "  horiz-adv-x="903" />
<glyph unicode="&#x09;" horiz-adv-x="903" />
<glyph unicode="&#xa0;" horiz-adv-x="903" />
<glyph unicode="!" horiz-adv-x="672" d="M246 2043q0 138 56 152q80 0 80 -848l80 -776q-11 -104 -40 -104h-16q-64 0 -144 768zM302 3q0 72 104 136h24q56 -40 56 -128q-8 -96 -96 -96q-88 8 -88 72v16z" />
<glyph unicode="&#x22;" horiz-adv-x="672" d="M154 1545v144q0 88 24 88h8q40 0 120 -480q34 -56 48 -56l16 -32q0 -45 -64 -80q-113 0 -152 416zM466 1761v24q13 64 40 64q96 0 96 -184q18 -432 48 -432q-14 -56 -72 -56h-8q-78 0 -104 584z" />
<glyph unicode="#" horiz-adv-x="1256" d="M126 1023q0 72 232 72h56q799 37 799 -3v-16q0 -46 -991 -165q-96 33 -96 112zM126 1359q14 88 80 88l72 -24h72q495 37 647 61q59 -16 80 -56v-32q0 -33 -759 -149l-80 -24q-112 48 -112 136zM383 1645q33 96 112 96q72 0 72 -232v-56q37 -799 -3 -799h-16 q-46 0 -165 991zM695 1629q48 112 136 112q88 -13 88 -80l-24 -72v-72q37 -495 61 -647q-16 -59 -56 -80h-32q-33 0 -149 759z" />
<glyph unicode="$" d="M64 461q0 64 56 112h16q17 0 40 -168q125 -208 392 -208v8q0 696 -88 696q-232 294 -232 456v56q0 216 160 288q46 43 88 128h8q37 0 192 -144q53 -21 88 -72v-32l-51 -44l-133 80l16 -324q0 -445 120 -528q216 -294 216 -408q0 -158 -216 -272q-56 -8 -56 -32l8 -248 v-72q0 -45 -40 -56q-43 8 -64 40l8 8v48q0 304 -48 304q-242 0 -464 320zM352 1365q89 -261 152 -312h16l8 32q-34 431 -56 464h-32q-88 -87 -88 -184zM648 669l16 -464l8 -8h24q152 88 152 160v16q0 166 -176 320h-16z" />
<glyph unicode="%" horiz-adv-x="1541" d="M24 1311q0 309 208 416h24l216 -64h24q62 0 472 88h24q136 -46 136 -152q0 -99 -240 -672q-184 -645 -184 -1016q-29 -24 -56 -24q-64 0 -64 80q0 138 200 960q192 521 192 592v56q-13 32 -56 32h-40q-480 -112 -480 -176q-141 -288 -240 -288h-32q-104 57 -104 168z M168 1319h16q43 0 96 192v32h-16q-96 -63 -96 -120v-104zM1032 271q0 245 176 344l40 32h16q184 -51 184 -160q-41 -209 -208 -432l-72 -40q-136 42 -136 256zM1176 191h16q49 0 128 248v16q0 61 -32 72q-112 -105 -112 -248v-88z" />
<glyph unicode="&#x26;" horiz-adv-x="868" d="M106 1073v8q0 139 128 248q56 36 56 80v384q0 128 72 128q80 -49 80 -104q-40 -138 -40 -208v-112l32 -32l104 8q88 -16 88 -80q0 -66 -152 -88q-48 -48 -48 -104q12 -88 40 -88h8l104 32q96 -13 96 -72q0 -84 -168 -288l-8 -48v-16q0 -344 32 -344q27 0 200 128h16 l16 -16v-8q0 -66 -232 -240v-8q0 -211 48 -576q-16 -48 -64 -48q-56 0 -56 192q-9 368 -48 368l-128 -8q-160 15 -160 120v40q0 109 216 440q24 41 24 80v16q0 53 -120 72q-136 0 -136 144zM250 321l16 -16h152v8q0 141 -24 272h-16q-128 -177 -128 -264zM250 1089l32 -32 h24l32 32v32l-16 72h-16q-29 0 -56 -96v-8z" />
<glyph unicode="'" horiz-adv-x="346" d="M78 1920q8 72 56 72q104 0 104 -328l16 -312q-13 -40 -48 -40q-92 0 -128 608z" />
<glyph unicode="(" horiz-adv-x="640" d="M0 904q0 659 176 920q21 91 152 208v-16q0 -51 -144 -392l-56 -296l-24 -336v-296q0 -389 208 -576h64q74 0 184 96h8l16 -16v-8q0 -79 -192 -192h-32q-179 71 -200 152q-152 188 -152 600z" />
<glyph unicode=")" horiz-adv-x="758" d="M126 48q0 30 152 88q304 338 286 718t-96 541t-214 245q-64 44 -64 120q11 33 40 48h8q144 0 291.5 -303t142 -653t-137.5 -556q-253 -304 -360 -304q-48 19 -48 56z" />
<glyph unicode="*" horiz-adv-x="1024" d="M81 1496v16q16 104 48 104h16q29 0 216 -120h16l16 24v168q0 90 40 112q72 0 112 -264h40q149 0 296 192l48 16q56 -21 56 -96q0 -88 -176 -232q-96 -100 -96 -144l208 -120l8 -8v-16q0 -17 -56 -40l-256 80h-8q-40 0 -64 -128v-256q0 -19 -64 -32q-38 0 -88 88h-16 q-118 -136 -160 -136h-8q-40 21 -40 64v8q0 37 184 248l56 112v40l-16 152h-16l-224 -48q-72 0 -72 216z" />
<glyph unicode="+" d="M41 723q35 96 104 96l136 -16h104l32 32q-24 173 -32 416q0 50 40 72h24q80 -41 80 -200v-296l416 40l24 -24h8q0 -88 -208 -88q-216 -66 -216 -96v-80l16 -344v-8q-4 -64 -64 -64q-72 0 -72 280q0 224 -32 224l-264 -32q-58 0 -96 88z" />
<glyph unicode="," horiz-adv-x="616" d="M277 263q10 104 80 104q76 0 96 -160q59 -141 80 -272q0 -303 -224 -432l-24 24h-8l112 328l8 112q0 127 -112 248z" />
<glyph unicode="-" horiz-adv-x="1145" d="M41 723q18 56 168 32h112l656 24q80 -25 76 -92t-188 -44h-8l-656 -48q-138 -16 -160 128z" />
<glyph unicode="." horiz-adv-x="570" d="M259 64v16q0 72 104 136h24q56 -40 56 -128q-8 -96 -96 -96q-88 8 -88 72z" />
<glyph unicode="/" horiz-adv-x="719" d="M80 -88q-60 23 146 767l351 1085q51 129 108 121q74 -29 -306 -1145l-209 -752q-49 -93 -76 -82z" />
<glyph unicode="0" d="M0 1040q0 413 224 688q92 96 208 96q96 0 152 -128l-16 -48q241 -230 288 -536q48 -162 48 -272v-40q0 -304 -192 -656q-93 -123 -200 -144q-332 0 -480 720zM120 1008q17 -691 320 -864h64q146 0 264 440q14 35 24 216q-21 646 -408 816h-80q-88 -47 -136 -216 q-48 -201 -48 -392z" />
<glyph unicode="1" horiz-adv-x="500" d="M110 1708q0 38 48 72q96 0 78 -373q10 -1131 74 -1131q32 -45 32 -120q0 -155 -88 -192q-88 0 -88 336q-10 185 -56 1408z" />
<glyph unicode="2" horiz-adv-x="1111" d="M0 1280q121 286 336 392q26 18 112 32q111 0 168 -240l16 -232q0 -264 -264 -960h8q526 234 632 304q50 -10 64 -48q0 -61 -552 -328l-360 -200q-88 18 -88 48v16q0 39 160 232q280 535 280 840v224q0 200 -104 200q-256 -143 -256 -280q-56 -80 -96 -80q-25 8 -56 80z " />
<glyph unicode="3" horiz-adv-x="1041" d="M0 1344q152 312 408 440l56 8q133 0 168 -248q0 -111 -112 -440l16 -16l128 24q184 0 288 -200q24 -52 24 -310t-352 -546q-137 -56 -200 -56q-141 0 -272 144v32l24 8q135 -48 216 -48h80q183 0 376 384q32 57 32 144v40q0 256 -136 256h-80q-170 0 -392 -216 q-46 0 -64 80q11 72 80 128q216 364 216 536v96q0 72 -56 72t-200 -144q0 -23 -88 -152q0 -110 -48 -128q-45 0 -112 112z" />
<glyph unicode="4" horiz-adv-x="1041" d="M0 1768q0 35 88 56q72 0 72 -376q0 -456 48 -456l88 -24q210 0 392 112l8 8v8q-32 367 -112 768q0 30 64 80h8q76 0 144 -784v-8l24 -24h8l96 24h16q48 -32 48 -64q-10 -34 -144 -104l-16 -40q32 -638 80 -856q-24 -88 -48 -88h-24q-80 41 -80 160q-29 776 -64 776h-16 q-286 -96 -432 -96q-208 0 -208 320z" />
<glyph unicode="5" d="M0 888q0 672 112 672q192 16 504 80q56 -4 56 -48q0 -100 -368 -160q-152 -38 -152 -152q-32 -104 -32 -296v-8q0 -120 48 -120q250 144 360 144l72 8h24q139 0 216 -208q-17 -206 -192 -472q-199 -272 -320 -272q-81 -56 -112 -56h-16q-24 0 -32 64q0 64 128 96 q278 167 384 456l16 96v96q-31 64 -104 64h-32q-87 0 -464 -176q-96 40 -96 192z" />
<glyph unicode="6" horiz-adv-x="811" d="M0 744v96q48 702 64 744q43 32 80 32q42 0 48 -80q-72 -511 -72 -640v-312q0 -440 160 -440q96 0 96 152v40q0 630 152 792q46 32 72 32q112 0 145.5 -298t-193.5 -654v-32l48 -64v-8q0 -75 -112 -88h-24q-36 32 -56 32l-120 -48q-200 56 -200 144q-88 149 -88 600z M488 440l8 -40h8q104 53 104 520l-8 40h-8q-62 0 -104 -520z" />
<glyph unicode="7" horiz-adv-x="896" d="M0 1392q0 93 192 120q410 240 528 240q74 0 88 -120q-58 -451 -184 -1048q-46 -146 -72 -536l-48 -48h-32q-64 43 -64 112q264 1168 264 1488h-8q-66 0 -560 -296h-16q-88 11 -88 88z" />
<glyph unicode="8" horiz-adv-x="1096" d="M0 1080q51 300 192 456q301 336 501.5 340t258.5 -140l-8 -24h-8l-120 40h-64q-210 0 -472 -296q-144 -186 -144 -352q0 -88 64 -88h56q432 136 619 611q93 23 97 -90t-260 -385v-16q272 -43 320 -296q0 -247 -456 -752q-101 -88 -176 -88q-136 63 -136 152l-8 8v8 q0 176 216 792l-8 8h-8q-179 -88 -248 -88q-208 68 -208 200zM392 216q0 -61 32 -72q199 62 432 464q64 138 64 216v48q-45 128 -168 128h-40q-108 0 -192 -248q-128 -214 -128 -520v-16z" />
<glyph unicode="9" horiz-adv-x="941" d="M0 984v96q0 448 360 592l88 16l176 -48h16q0 38 88 64q56 0 96 -72q-21 -170 -25 -845.5t-31 -754.5l-64 -32q-48 0 -56 64q32 299 32 1088v96h-24q-187 -342 -352 -464q-58 -32 -128 -32q-151 0 -176 232zM112 944q18 -38 56 -56h40q126 0 344 424l32 112v56 q-37 64 -120 64h-56q-122 0 -224 -168q-72 -136 -72 -368v-64z" />
<glyph unicode=":" horiz-adv-x="577" d="M303 221v16q0 72 104 136h24q56 -40 56 -128q-8 -96 -96 -96q-88 8 -88 72zM307 931v16q0 72 104 136h24q56 -40 56 -128q-8 -96 -96 -96q-88 8 -88 72z" />
<glyph unicode=";" horiz-adv-x="672" d="M242 -621q0 21 88 144q112 260 112 448q0 162 -112 384v16q38 72 88 72h8q120 -93 120 -552v-16q0 -50 -104 -320q-67 -129 -168 -216q-32 12 -32 24v16zM249 943v16q0 72 104 136h24q56 -40 56 -128q-8 -96 -96 -96q-88 8 -88 72z" />
<glyph unicode="&#x3c;" horiz-adv-x="1247" d="M0 832q0 63 176 184q490 504 512 504h32q24 -8 24 -48q0 -72 -496 -600l-32 -64q35 -77 472 -392l456 -288q48 -48 48 -80q0 -40 -32 -48q-190 96 -800 520q-98 42 -176 120q-184 92 -184 192z" />
<glyph unicode="=" d="M137 612q0 72 232 72h56q488 0 488 -40v-16q0 -46 -680 -128q-96 33 -96 112zM137 948q14 88 80 88l72 -24h72q184 0 336 24q59 -16 80 -56v-32q0 -33 -448 -112l-80 -24q-112 48 -112 136z" />
<glyph unicode="&#x3e;" horiz-adv-x="1061" d="M141 1772l8 24h8q87 0 640 -528q200 -137 200 -216q0 -153 -416 -608q-240 -316 -240 -408q0 -27 -104 -48q-38 0 -64 72q17 121 464 640q168 235 168 288v88q-198 241 -616 600q-48 69 -48 96z" />
<glyph unicode="?" horiz-adv-x="1085" d="M266 1149q0 91 88 104q20 0 112 -64q74 -24 152 -24q112 0 280 264l16 96v40q-42 128 -160 128q-113 0 -400 -144l-32 -8q-36 16 -40 32v8q0 163 472 240q167 0 264 -192q24 -48 24 -136q0 -200 -288 -416q-122 -64 -176 -64l-112 8l-16 -24v-32l32 -400 q-11 -121 -40 -128h-16q-61 0 -136 624zM330 104q0 62 96 96q112 -58 112 -136h8q0 -40 -40 -64h-32q-144 0 -144 104z" />
<glyph unicode="@" horiz-adv-x="1799" d="M40 731v48q0 401 448 784q242 123 408 136q364 0 720 -456q104 -186 104 -304v-8q-90 -608 -360 -608l-152 48q-139 -136 -160 -136l-48 -8q-144 43 -144 144l-32 336q0 350 208 472l48 16q176 -78 176 -296l8 -120l-16 -224q0 -53 56 -88h72q157 0 232 400v144 q0 166 -328 456q-177 104 -296 104h-48q-500 0 -752 -568q-56 -133 -56 -320q0 -563 440 -920q182 -128 336 -128h64q250 0 512 192h16l8 -8v-8q0 -100 -344 -248l-120 -16h-152q-179 0 -464 224q-255 305 -315 427t-69 533zM952 499q0 -100 48 -128q42 0 96 168 q-56 222 -56 448h-8q-80 -76 -80 -392v-96z" />
<glyph unicode="A" horiz-adv-x="901" d="M20 758q72 116 72 152q67 673 105 908l128 6q77 -36 112 -168q127 -414 183 -722h16q48 0 224 48q36 0 36 -60q0 -57 -228 -124l-16 -32l134 -732q-19 -64 -80 -64q-64 0 -64 64v152q-62 564 -118 564h-32q-304 -24 -304 -96l-8 -128l-14 -489q0 -55 -72 -64 q-56 0 -64 104q46 204 46 545zM204 878q0 -16 24 -16q288 35 288 48q0 225 -199 690l-32 24q-33 0 -81 -634v-112z" />
<glyph unicode="B" horiz-adv-x="1331" d="M3 1496q0 66 176 136q32 43 32 72v48l-24 144q0 68 48 96q112 -30 112 -120v-136h8q207 80 312 80q234 0 296 -200l8 -72v-24q0 -162 -192 -488l-8 -48h16q212 56 288 56q200 -42 200 -184q0 -190 -576 -704q-350 -280 -496 -280q-115 0 -152 168q0 50 40 72h32 q24 0 24 -48l16 -48l8 -8h88q40 18 40 80v152q0 232 -48 232l-64 -24q-39 0 -80 72q0 59 168 168q-24 549 -48 760l-104 -32q-92 0 -120 80zM339 1552l40 -768q55 0 232 200q0 28 168 264q88 186 88 296q0 152 -176 152q-198 0 -352 -136v-8zM379 520q0 -118 80 -400h8 q132 34 568 520q112 163 112 224v16q-13 32 -56 32h-80q-240 -17 -608 -312q-16 -19 -24 -80z" />
<glyph unicode="C" horiz-adv-x="1215" d="M0 976q0 478 200 736q134 112 232 112q104 0 184 -104v-32l-64 -64l-64 32q-178 0 -240 -152q-128 -190 -128 -544q0 -530 232 -784q53 -48 104 -48h32q225 0 496 560q88 234 88 336l-16 56q0 30 48 64h8q72 0 72 -96q0 -329 -408 -896q-157 -152 -280 -152 q-375 0 -496 976z" />
<glyph unicode="D" horiz-adv-x="998" d="M0 1896q26 104 128 104q70 0 144 -128q176 -50 504 -392q176 -270 176 -632q0 -454 -392 -784q-130 -64 -184 -64q-192 46 -192 192l24 112q-78 1520 -168 1520zM232 1720q48 -1175 128 -1496l8 -96h16q164 0 328 280q128 260 128 496q0 612 -568 808z" />
<glyph unicode="E" horiz-adv-x="1111" d="M0 1064q0 32 80 80l8 24q0 128 -88 544q0 83 224 112l440 160h8q59 0 104 -104q0 -69 -504 -192l-96 -40l24 -496q3 -21 40 -32q301 0 560 112h32q48 -5 48 -24v-24q0 -59 -304 -152q-344 -62 -344 -88v-480l8 -296h16v-8q81 1 352 144l416 96q31 -36 32 -72 q0 -55 -344 -104q-362 -224 -496 -224q-88 0 -88 136l-16 768z" />
<glyph unicode="F" horiz-adv-x="941" d="M0 1680v8l24 88v32q0 57 -16 88q0 73 80 104q67 0 96 -184h8l160 16h320q102 0 208 -88q11 -29 11 -49q0 -47 -59 -47q-79 48 -168 48h-64q-424 0 -424 -120v-40q0 -316 40 -336l576 96q40 -11 40 -56v-8q0 -42 -568 -200q-40 -6 -40 -24v-104q0 -327 48 -848 q0 -56 -80 -56h-16q-48 0 -48 48v112q0 912 -48 912v104q0 356 -80 504z" />
<glyph unicode="G" horiz-adv-x="1367" d="M-3 8q0 123 192 224q128 136 128 184l-40 528v56q0 429 216 728q176 176 312 176q208 -27 208 -120q0 -72 -96 -80l-72 16h-88q-115 0 -233.5 -166.5t-134.5 -665.5v-32q5 -336 40 -336q132 110 672 776q75 72 112 72q88 -25 88 -88q-114 -652 -440 -1096 q-129 -176 -256 -176q-89 0 -248 200h-8q-54 -27 -224 -256l-48 -8h-16q-64 4 -64 64zM461 280q48 -136 144 -136q131 0 352 400q184 436 184 568h-16q-134 -126 -640 -744q-24 -39 -24 -88z" />
<glyph unicode="H" horiz-adv-x="1031" d="M0 1128v16q35 56 104 56l8 -8l24 8q0 209 -56 496q0 77 72 104q104 -26 104 -104l-16 -360q0 -200 88 -200l424 -24v8q0 425 -120 600l-8 40q34 64 80 64q144 0 144 -392q59 -1001 104 -1280q12 0 24 -96q-23 -56 -72 -56h-8q-88 0 -88 256l-40 712q-29 24 -56 24h-400 l-56 -8q22 -816 48 -816v-8q-40 -56 -80 -56q-72 0 -72 112v184l-8 592q0 22 -96 56q-48 49 -48 80z" />
<glyph unicode="I" horiz-adv-x="502" d="M113 1826q19 88 64 88q104 -19 104 -88l8 -184v-240q37 -1234 112 -1234l8 -48q0 -80 -80 -120q-88 0 -88 208q0 416 -128 1618z" />
<glyph unicode="J" horiz-adv-x="971" d="M10 421q31 61 80 67h6q48 0 82 -117q248 -216 453 -216q27 0 53 4l16 2q76 68 76 301q0 144 -29 351l-45 325q-30 221 -134 621q24 51 67 51q17 0 37 -8q71 -27 76 -59l164 -1246v-26q0 -435 -167 -458l-47 -14q-203 25 -497 206q-171 117 -188 192z" />
<glyph unicode="K" horiz-adv-x="1327" d="M30 1723q34 184 64 184l24 8q104 0 104 -208q11 -371 40 -616h16q264 200 416 344q88 95 160 256l48 32q46 0 88 -88q0 -213 -616 -664l-16 -48v-32q18 -73 504 -344q341 -200 408 -200q32 -16 32 -48q-27 -96 -88 -96q-30 0 -200 128q-214 144 -504 264 q-165 128 -208 128h-8v-240q0 -220 32 -552q-11 -80 -80 -80q-74 4 -96 24q24 192 32 472q-48 1077 -112 1296q0 22 -40 80z" />
<glyph unicode="L" horiz-adv-x="964" d="M0 104l16 800v288l-16 656q23 88 48 88h16q66 0 112 -96q-32 -112 -32 -256v-1264l8 -96h56q60 0 440 184l240 56q27 -20 40 -64q0 -68 -336 -160q-235 -131 -496 -240q-96 54 -96 104z" />
<glyph unicode="M" horiz-adv-x="1260" d="M33 1829q11 56 32 56q101 0 120 -192q72 -58 336 -984q104 -271 144 -296q85 149 160 616q32 334 56 416v144q0 280 64 280q128 -61 128 -96q0 -233 128 -1872q-6 -64 -64 -64h-8q-88 91 -88 840l-56 576h-16q-64 -590 -216 -976q-32 -48 -72 -48h-24q-126 69 -376 944 l-96 200h-8v-136q0 -700 72 -1160q-18 -48 -64 -48q-104 0 -104 792z" />
<glyph unicode="N" horiz-adv-x="1064" d="M0 1704q21 72 96 72q171 0 288 -376q197 -368 448 -912h16l8 440v72l-8 144l8 136v48q0 132 -32 352q24 72 88 72q56 -23 56 -72q16 -1163 32 -1360q0 -184 -40 -184h-16q-102 0 -176 256q-307 681 -456 928q-63 121 -128 176h-8v-384q0 -560 64 -1048q0 -42 -48 -64h-32 q-71 0 -88 656q0 416 -72 1048z" />
<glyph unicode="O" horiz-adv-x="918" d="M0 1048q43 481 120 536q73 119 216 168q96 0 328 -288q176 -339 176 -640q0 -443 -296 -768q-87 -56 -136 -56q-150 0 -228.5 175.5t-126.5 402t-53 470.5zM112 1120q0 -677 208 -960q34 -32 64 -32h40q115 0 201.5 200t86.5 440v104q0 278 -72 384q-47 157 -128 232h-16 q-11 -56 -32 -56h-8q-16 0 -80 120h-24q-29 -30 -96 -40q-96 -136 -144 -384v-8z" />
<glyph unicode="P" horiz-adv-x="801" d="M0 1664q32 82 48 208l48 8q112 0 112 -144q536 -89 536 -464v-16q0 -374 -423 -699l39 -509q0 -48 -56 -48q-72 0 -72 80l-22 452h1q0 3 -115 36q-56 54 -56 112v8l8 40h24q85 -88 120 -88h8v32q0 236 -112 872q-88 54 -88 120zM216 1560q76 -848 112 -848 q215 158 304 440v8q0 256 -104 336q-108 80 -232 80h-40q-40 -2 -40 -16z" />
<glyph unicode="Q" horiz-adv-x="1154" d="M0 884v72q0 545 360 784l96 16q167 0 248 -192q0 -69 152 -280q120 -303 120 -456l-16 -256q0 -75 144 -376l32 -192v-24q-60 1 -192 344l-48 64q-217 -329 -336 -344l-80 -16q-322 0 -464 616zM104 820q0 -465 288 -672l56 -8h16q202 0 328 376v56q0 70 -328 432v8 q31 80 96 80h24q124 -154 216 -320l40 -40h16v96q0 201 -152 496q-58 56 -96 56h-24l-120 -64h-8l-24 48q30 144 176 144v24q0 40 -136 72h-48q-304 -239 -304 -536q-14 0 -16 -240v-8z" />
<glyph unicode="R" horiz-adv-x="1194" d="M14 870q10 80 64 80v160q0 255 -64 504q0 208 88 208q46 0 104 -88h8q86 9 160 9q472 0 472 -360v-9q0 -389 -360 -600v-8q92 -102 304 -232q183 -80 368 -80l16 -32q0 -72 -128 -72h-8q-156 0 -600 280q-79 51 -184 80h-24l-8 -32q0 -286 48 -656q0 -72 -88 -72h-16 l-24 24q-17 808 -48 808q-80 34 -80 88zM190 1206q0 -320 96 -320h96q184 0 328 352l8 40v128q0 163 -136 200h-40q-214 0 -336 -72q-16 -36 -16 -104v-224z" />
<glyph unicode="S" horiz-adv-x="938" d="M17 1274q0 326 360 464l48 8q89 0 288 -104q32 -34 32 -64v-24l-56 -56h-8q-179 88 -256 88h-24q-189 0 -248 -336v-40q0 -270 480 -528q232 -161 232 -320v-8q0 -223 -408 -304h-80q-200 0 -288 224l-16 96v24l16 24q32 0 112 -168q81 -80 200 -80q196 0 336 168l8 56 q-39 153 -424 368q-304 246 -304 512z" />
<glyph unicode="T" horiz-adv-x="891" d="M4 1612q0 72 280 72l56 8v8l8 8l-16 80q16 96 72 96q128 -71 128 -160l40 -8l168 8q233 -10 240 -48v-24q0 -44 -472 -80q-24 -29 -24 -56v-48v-45q0 -416 68 -1343q-17 -54 -56 -80h-24q-64 33 -64 136v184q0 467 -52 1188l-8 8h-120l-192 -32q-32 48 -32 128z" />
<glyph unicode="U" horiz-adv-x="1044" d="M-3 1607q39 144 80 144h16q80 -47 80 -176v-160q3 -473 219 -1167l24 -16h24q114 113 184 352q96 414 96 544v24l-27 511q18 72 40 72h32q112 0 112 -192l59 -1159q0 -227 32 -296q-16 -88 -72 -88q-80 0 -80 304l-8 440l-8 8h-8q-189 -696 -360 -696q-187 0 -403 1487z " />
<glyph unicode="V" horiz-adv-x="984" d="M-37 1669v16q22 96 88 96q85 -49 261 -597q226 -664 312 -816l8 -8h16q96 1190 128 1355q56 80 72 80h16q40 -18 56 -64q-160 -1156 -160 -1683q-27 -48 -96 -48q-68 0 -104 200l-160 440q-152 471 -405 997z" />
<glyph unicode="W" horiz-adv-x="1393" d="M0 1640q5 88 72 88q124 0 144 -296q152 -478 280 -992l8 -8h8q30 212 64 840l8 48l-16 152q23 144 72 144q105 0 216 -392l208 -600h8q72 461 96 816v104l-8 112q0 68 104 112q45 0 64 -104q-144 -1028 -144 -1464q-20 -56 -56 -56l-40 -8q-104 0 -104 296 q-128 523 -248 800l-8 8h-8q-30 0 -96 -1152q-28 -88 -48 -88h-8q-108 0 -160 360l-56 232q-168 648 -280 904q-59 0 -72 144z" />
<glyph unicode="X" horiz-adv-x="1091" d="M0 1624v24q0 49 56 72q70 0 224 -280q109 -152 224 -352l8 -8h16q27 0 240 600q13 56 40 56q96 -31 96 -112l-192 -464q-80 -188 -80 -224v-40q0 -96 232 -432q160 -64 160 -200q-18 -80 -64 -80q-65 0 -320 448l-72 128h-24q0 -46 -336 -672q0 -48 -112 -88 q-56 0 -64 88q0 59 80 120q219 311 352 680v16q-16 162 -376 600q-88 32 -88 120z" />
<glyph unicode="Y" horiz-adv-x="1101" d="M3 1597v8q0 49 56 88h24q163 -168 304 -368q385 -413 456 -448h16l16 304v240l-24 480q0 72 40 72q85 -36 120 -120v-88l-40 -1640l16 -384q0 -80 -80 -80q-72 15 -72 64l40 984q-149 97 -392 376q-248 266 -464 464z" />
<glyph unicode="Z" horiz-adv-x="1240" d="M0 1480q0 76 592 304l136 24q120 -52 120 -128q0 -178 -320 -799t-320 -681v-16q8 -24 48 -24h104q354 66 672 248q97 97 104 152h24l48 -88q0 -86 -408 -328q-199 -80 -496 -136l-24 -8q-171 0 -240 128v16q361 699 672 1472v24l-16 16h-56q-56 0 -576 -232h-40 q-19 0 -24 56z" />
<glyph unicode="[" horiz-adv-x="878" d="M26 24v72q32 89 48 640l8 895q0 216 56 216h24l104 -32q304 88 344 88h8q70 0 88 -48q0 -90 -320 -144q-160 -38 -160 -104q-24 -359 -64 -1207q26 -312 88 -312q25 -40 104 -40q120 0 432 40h8q96 0 96 -32v-24q0 -38 -280 -72q-193 -56 -256 -56h-80q-248 29 -248 120z " />
<glyph unicode="\" horiz-adv-x="763" d="M56 1898q57 8 110 -119l374 -1077q222 -740 163 -765l-15 -6q-27 -11 -77 81l-225 747q-404 1108 -330 1139z" />
<glyph unicode="]" horiz-adv-x="1100" d="M82 -29q21 96 128 72q593 72 624 96q13 0 24 824l-34 732q0 88 -24 88q-96 0 -424 -48q-72 18 -72 40q337 160 624 160q40 -11 40 -56v-184q0 -230 -22 -844v-24q0 -573 64 -768v-48q0 -62 -40 -80h-16q-108 40 -216 40h-144q-203 0 -464 -64h-8q-40 22 -40 64z" />
<glyph unicode="^" horiz-adv-x="1304" d="M133 839q0 91 536 1080h8q157 -138 192 -256q10 -119 192 -520q50 -115 176 -296l8 -32q0 -39 -56 -56q-109 59 -240 432q-186 483 -248 496q-89 -99 -464 -800l-72 -64h-16z" />
<glyph unicode="_" horiz-adv-x="1348" d="M44 47v16l24 8l976 -40q264 -29 264 -80v-16q-13 -32 -56 -32h-32q-148 24 -280 24h-280q-592 0 -592 96z" />
<glyph unicode="`" horiz-adv-x="1356" d="M81 1453q-132 425 42 567q100 77 252 77h21q230 0 343 -420l28 -28h14q76 53 322 420q42 42 70 42q77 0 105 -189q0 -225 -126 -798t-126 -735v-42q0 -37 84 -189q0 -35 -98 -147q-25 -126 -119 -126h-14q-70 0 -70 70l28 266v49q0 142 -182 343q-407 535 -497 672z M158 1677q0 -280 595 -1022l130 -158q213 708 262 1278v77l-7 7h-7q-60 -50 -329 -434q0 -38 -48.5 -141.5t-113.5 -103.5q-28 11 -28 21q0 44 57 231v14q0 234 -154 462q-61 49 -112 49h-21q-116 0 -203 -133q-21 -46 -21 -98v-49z" />
<glyph unicode="a" horiz-adv-x="908" d="M0 568q22 565 270 756l96 32l120 -8l72 64q96 -49 96 -376q40 -198 66 -628l80 -304q0 -81 -80 -104q-80 0 -80 304l-42 468h-16q-88 -371 -262 -684q-44 -72 -182 -76h-2q-136 0 -136 556zM88 504q20 -360 80 -360q188 0 334 836l8 168v104h-8q-211 0 -248 -88 q-160 -245 -166 -660z" />
<glyph unicode="b" horiz-adv-x="959" d="M0 1744q6 64 64 64h8q69 0 88 -136q-24 -38 -24 -72q0 -415 48 -976h16q127 680 416 680h32q95 0 216 -216q24 -120 24 -216q0 -341 -272 -704q-129 -128 -232 -128q-66 0 -136 72h-8q-52 -94 -96 -112h-8q-64 0 -64 392q0 496 -72 1352zM248 296q0 -68 152 -112 q135 0 312 400q64 192 64 336q-15 256 -128 256h-24q-240 0 -376 -864v-16z" />
<glyph unicode="c" horiz-adv-x="905" d="M0 584v72q33 582 341 717h24q123 0 232 -144v-16l-40 -40l-120 32h-40q-238 0 -293 -605q0 -464 280 -464q248 0 424 520l8 8h16q40 -18 40 -80q-26 -198 -208 -440q-135 -144 -288 -144q-296 0 -368 480z" />
<glyph unicode="d" horiz-adv-x="920" d="M12 573q0 237 176 552q157 152 248 152l128 -32h16q20 0 24 80l-48 616q0 42 40 64h8q101 0 120 -352q96 -1058 96 -1704q-28 -24 -80 -24q-56 0 -56 240v520l-96 -360q-126 -336 -329 -352q-9 -1 -18 -1q-187 0 -221 321zM116 397q9 -270 104 -312h24q173 0 304 472 q32 272 32 448q0 55 -80 104h-32q-233 0 -336 -456l-16 -232v-24z" />
<glyph unicode="e" horiz-adv-x="896" d="M0 536v104q0 322 101.5 498.5t282.5 181.5q197 -75 208 -352v-16q0 -187 -272 -384l-200 -104v-24q0 -243 200 -288h64q210 0 440 384q37 124 64 128h24q48 -28 48 -80q-53 -160 -272 -416q-184 -150 -312 -168q-181 0 -320 256q-56 115 -56 280zM120 656l16 -16h8 q122 0 288 216q24 43 32 112q0 208 -128 208q-116 0 -208 -416z" />
<glyph unicode="f" horiz-adv-x="794" d="M-104 1109q10 62 96.5 68.5t259.5 6.5l-17 218q18 185 176 400q126 105 288 128q152 -44 152 -144q-20 -56 -56 -56l-96 32h-32q-176 0 -296 -304l-24 -200l9 -50h104q93 0 432 80q26 -8 32 -32q0 -83 -552 -192l162 -1169q-24 -72 -88 -72q-29 0 -146 1033 q-26 184 -56 184l-88 8l-197 -7q-65 5 -65 53q0 7 2 15z" />
<glyph unicode="g" horiz-adv-x="742" d="M17 445q-1 36 -1 70q0 495 190 671q59 33 223 62q31 40 172 89h2q39 0 39 -33q0 -46 -76 -157q19 -185 19 -336q0 -355 -103 -529q-148 -247 -238 -256h-5q-188 0 -221 403zM121 463l2 -88q22 -213 115 -213h2l8 1q113 120 175 281q57 147 57 349q0 20 -1 40l-1 56 q-5 174 -83 174h-2l-40 -1q-180 -5 -228 -438zM181 -789q-1 36 -1 70q0 494 190 671q59 33 222 61q159 -51 159 -386q0 -40 -3 -85q-21 -413 -135.5 -577t-204.5 -173h-5q-188 0 -222 403v16zM189 240q-3 13 -3 26q0 73 108 118q46 -8 68 -148l25 -102l136 -368 q-4 -79 -74 -84h-4q-66 0 -72 156l-2 8l-158 362zM284 -771l3 -88q21 -213 115 -213h2h8q113 120 175 282q57 147 57 349q0 20 -1 40l-1 55q-5 174 -83 174h-2l-40 -1q-181 -4 -229 -438z" />
<glyph unicode="h" horiz-adv-x="941" d="M0 1640q0 144 88 144h24q22 0 29 -52q3 -19 3 -61q0 -71 -8 -207l16 -616l8 -8h8q29 32 96 224q149 312 312 312q159 0 240 -344l16 -320v-288q0 -325 32 -368q0 -42 -64 -56q-85 0 -104 184v8q24 320 24 552q0 369 -80 448l-48 32h-40q-152 -96 -232 -360 q-96 -169 -96 -608v-56q0 -72 -80 -72l-48 -8q-64 0 -64 1104z" />
<glyph unicode="i" horiz-adv-x="430" d="M39 1714v8q0 72 67 107h3q59 0 105 -99q-22 -113 -82 -116h-4q-71 0 -89 100zM72 1200q28 56 64 56q96 0 96 -136l40 -1040q-12 -44 -55 -44q-15 0 -33 5q-72 20 -72 63l8 296q0 525 -48 800z" />
<glyph unicode="j" horiz-adv-x="496" d="M-661 -317q11 33 23 33q27 -25 129 -202q142 -187 332 -257q93 -33 152 -33h9l128 6q75 3 139 471l-4 272q-11 229 -121 1083l-6 120v6q0 48 29 67q131 -57 134 -130q-25 -84 -25 -148v-13q106 -932 115 -1116q2 -53 2 -103q0 -393 -146 -608q1 -24 -150 -47 q-265 27 -407 134q-255 199 -324 442zM60 1602v8q0 72 67 107h3q59 0 105 -99q-22 -113 -82 -116h-4q-71 0 -89 100z" />
<glyph unicode="k" horiz-adv-x="1156" d="M3 1680q0 53 83 53h9q92 -3 92 -101v-112q0 -223 40 -568q31 0 336 224q120 168 176 168h16q56 -31 56 -136q-232 -234 -536 -424l-8 -8v-16q182 -295 680 -456q184 -13 184 -88v-8q-11 -32 -72 -32q-274 0 -744 328q-29 24 -56 24v-232l16 -328q0 -48 -56 -72 q-88 0 -88 152l-8 568q0 62 -72 176q48 83 48 120v104q0 216 -96 664z" />
<glyph unicode="l" horiz-adv-x="442" d="M80 1867q0 42 40 64h32q80 -36 80 -160q40 -1327 96 -1704q0 -74 -112 -88h-8q-34 0 -40 96q0 824 -88 1792z" />
<glyph unicode="m" horiz-adv-x="1317" d="M18 1242q0 48 48 64q128 -22 128 -80l-8 -304q24 0 64 200q96 172 170 182q7 1 15 2q66 0 127 -84q68 -94 160 -404l8 -8h8q111 360 216 360h8q160 -117 160 -288q54 -236 91 -513t47 -365q-21 -64 -72 -64h-8q-76 0 -114 678q-44 321 -104 368h-16q-126 -70 -152 -783 q0 -208 -72 -208h-8q-42 0 -72 24l8 416q0 492 -200 727h-24q-144 -141 -144 -576v-247l8 -168q0 -67 -88 -72q-88 0 -88 408q-48 474 -96 735z" />
<glyph unicode="n" horiz-adv-x="1042" d="M20 1277q0 77 128 104q80 0 80 -128q0 -296 40 -528h16q59 293 216 456q49 46 96 48q229 0 320 -672l80 -552q0 -56 -56 -80q-2 -1 -3 -1q-55 0 -149 769l-88 280q-54 100 -72 104h-8q-180 0 -272 -632q-16 -83 -16 -296v-40q0 -63 -96 -88q-64 0 -64 600 q-81 624 -136 624z" />
<glyph unicode="o" horiz-adv-x="860" d="M0 760q0 227 104 472q99 88 208 88q326 0 424 -520q-7 -637 -392 -800q-206 0 -288 216q-56 220 -56 544zM96 624q0 -382 160 -496l48 -8q140 0 304 416q24 87 24 168q0 265 -160 448h-32q-13 0 -32 -56l-40 -8h-112q-79 -39 -128 -176q-32 -127 -32 -288z" />
<glyph unicode="p" horiz-adv-x="899" d="M3 925q0 120 160 120q136 254 248 280q133 0 264 -208q152 -253 152 -416v-64q0 -437 -344 -576l-120 -24l-104 8h-8l80 -904q-19 -120 -56 -120q-104 0 -104 304q-60 856 -80 856l-8 64l8 104q0 228 -88 576zM227 621l8 -88v-184q0 -184 80 -184q279 0 384 328l16 136 v32q0 272 -200 480l-56 16q-133 0 -176 -192q-40 -117 -56 -344z" />
<glyph unicode="q" horiz-adv-x="786" d="M-3 414v32q0 434 296 728q85 56 160 56h32q181 0 232 -192q-72 -122 -72 -176l-8 -648l8 -752q44 -376 136 -376q149 37 176.5 188t27.5 233v16q-58 320 -176 320h-120l-24 16q53 104 120 104q177 0 248 -184q56 -131 56 -272q0 -261 -84.5 -405t-263.5 -144 q-152 104 -152 256q-64 129 -64 768v456h-8q-206 -360 -264 -360l-56 -16q-159 0 -200 352zM125 358q33 -152 64 -152h16q177 171 256 536l8 120v56q-5 137 -48 152h-32q-264 -220 -264 -576v-136z" />
<glyph unicode="r" horiz-adv-x="789" d="M0 1304q26 104 88 104q112 -61 112 -120l-16 -120v-32q6 -184 32 -184q139 368 320 368l88 8q152 -13 152 -120v-32l-16 -24q-109 56 -144 56h-8q-97 0 -192 -120q-120 -277 -120 -624l32 -384q0 -72 -72 -72v-8q-78 0 -112 176l8 184q0 280 -128 904z" />
<glyph unicode="s" horiz-adv-x="930" d="M3 220v16q5 48 24 48h16q20 -10 96 -144q48 -32 88 -32h80q100 0 328 136l16 24v32q-361 177 -439 308q-80 132 -90 290q-1 12 0 22q0 142 122 252q132 118 300 140q18 2 36 3q147 0 284 -164q4 -20 4 -35q0 -53 -44 -53h-8q-46 0 -176 113l-48 8h-32q-215 0 -323 -225 v-88q24 -221 291 -371.5t267 -247.5v-8q0 -176 -432 -248l-96 -8q-179 0 -256 184z" />
<glyph unicode="t" horiz-adv-x="802" d="M-9 1184q0 48 244 48h39v32q0 207 -67 410q20 96 79 96q96 0 96 -192v-152h-2q-7 0 -7 -29q0 -40 13 -133h8q133 7 226 7q217 0 217 -39v-24q0 -48 -403 -72l-24 -8l96 -1148q-14 -79 -62 -79q-15 0 -34 8h-8q-64 0 -112 1203l-201 -16q-13 -2 -24 -2q-74 0 -74 90z" />
<glyph unicode="u" horiz-adv-x="930" d="M18 1221v24q0 43 64 88q74 0 88 -104v-72q42 -976 120 -976q177 197 264 680l16 152l-8 224q0 53 64 96q112 0 112 -360l88 -1032l-48 -40q-88 0 -88 136q-27 600 -48 600q-230 -632 -352 -632q-118 0 -136 152q-104 655 -136 1064z" />
<glyph unicode="v" horiz-adv-x="672" d="M8 1237q19 56 96 56q75 0 137.5 -235t128.5 -636l24 -24q94 639 94 889v72l24 24h40q88 0 88 -112v-8q-40 -106 -142 -1105q-39 -152 -120 -152h-16q-62 0 -104 440q-32 234 -90 391z" />
<glyph unicode="w" horiz-adv-x="1256" d="M37 1074q25 72 80 72q110 0 136 -440q69 -336 104 -336h16q168 411 168 856q23 96 93 100h3q67 0 80 -188q0 -460 168 -872h32q128 152 128 704q-1 320 57 324h5q54 0 66 -100v-104v-79q0 -535 -77 -700q-83 -177 -163 -245q-170 0 -232 408q-56 175 -56 240v16h-16 q-19 0 -64 -224q-119 -376 -216 -376q-116 0 -160 360q-72 319 -152 584z" />
<glyph unicode="x" horiz-adv-x="1045" d="M6 1170q22 120 88 120q239 -414 400 -592q50 51 248 520l48 40q19 7 35 7q62 0 69 -103q0 -30 -160 -288q-128 -248 -128 -296v-8q379 -438 400 -544v-8q-16 -48 -64 -48h-8q-107 0 -152 208l-216 280h-24q-28 -25 -384 -736l-64 -56h-32q-26 11 -48 64q0 62 192 360 q218 386 232 496v8q-304 378 -368 454.5t-64 121.5z" />
<glyph unicode="y" horiz-adv-x="868" d="M18 1127q2 35 94 82l24 -2q33 -2 43 -195q28 -516 81 -711q45 -155 112 -159l1 -1q67 0 209 540l25 255q3 43 3 85q0 146 -36 270q7 99 74 99h5l8 -1q96 -6 96 -205q0 -31 -2 -66q33 -535 33 -891q0 -184 -9 -321l-8 -120q-31 -475 -153 -607q-4 -61 -205 -83 q-173 12 -344 264l2 24l17 15l24 -2q182 -164 245 -169l48 -3h12q213 0 247 512l22 215q14 216 14 347q0 206 -34 208h-8q-150 -524 -316 -524h-7q-171 86 -200.5 288.5t-96.5 789.5z" />
<glyph unicode="z" horiz-adv-x="926" d="M0 1046q0 94 360 136q37 22 168 40q160 -45 160 -200q0 -159 -184 -448q-136 -246 -136 -344v-16l16 -16q183 9 392 158q135 159 201 159q13 -1 23 -7q13 -8 14 -23q0 -57 -186 -219q-235 -204 -492 -204q-81 0 -136 136q0 87 256 528q96 190 96 312q-15 37 -32 40 q-121 0 -424 -136h-8q-67 0 -88 104z" />
<glyph unicode="{" horiz-adv-x="1867" d="M90 1496q37 96 96 96q80 -92 80 -264q27 -236 304 -872q191 -352 400 -352h24q339 0 592 704l72 360l40 16q69 0 80 -96q-23 -252 -312 -752q-238 -336 -448 -336h-8q-452 0 -816 1152q-104 280 -104 344zM698 1288q0 52 72 64h16q19 -5 40 -56q0 -47 -64 -80 q-43 0 -64 72zM1030 1296q-12 120 84 120q43 0 80.5 -85.5t-57.5 -120t-107 85.5z" />
<glyph unicode="|" horiz-adv-x="1738" d="M-4 920q0 104 169 127q99 33 386 77q57 61 57 92q0 165 147 752q29 35 56 35q85 -28 85 -106q79 -554 140 -554l148 27q123 42 316 42q183 -10 183 -70q0 -97 -274 -190q-127 -63 -127 -147v-78q0 -166 127 -745q24 -22 42 -84q-19 -56 -70 -56q-45 1 -162 168 q-117 148 -204 148h-21q-57 0 -527 -471l-49 -35q-78 49 -78 91q113 364 204 584l14 91q0 100 -457 239q-75 16 -105 63zM292 937q14 -16 282 -128q121 -80 121 -90l13 -44q0 -63 -147 -423q-15 0 -26 -115h13q379 391 410 391h19q87 0 243 -141h13q-58 443 -103 531 l-19 102q0 83 230 199l58 44v7h-6q-146 0 -327 -89q-160 0 -160 121q-32 86 -96 249v7l-12 12q-16 0 -52 -262l-32 -77v-44l39 -84q0 -81 -403 -134q-58 -22 -58 -32z" />
<glyph unicode="}" horiz-adv-x="1708" d="M0 376q73 156 448 432q241 160 432 160q174 0 336 -144q167 -198 296 -568q0 -59 104 -64l8 -40q-26 -152 -112 -152q-60 24 -168 416q-169 416 -384 416h-40q-232 0 -544 -224l-248 -312l-88 -32q-24 27 -40 112zM400 1496v8q19 40 72 80h24q68 0 88 -120 q-24 -72 -96 -72q-88 43 -88 104zM736 1512q0 60 120 88q67 0 80 -96q0 -55 -80 -104h-24q-79 51 -96 112z" />
<glyph unicode="~" horiz-adv-x="1780" d="M64 608q124 423 344 552q74 32 128 32q294 0 608 -488q85 -128 176 -128h40q107 115 216 376q29 264 88 264q61 0 80 -88q-102 -439 -336 -688q-40 0 -40 -16q-151 0 -448 440q-156 200 -304 200h-88q-168 0 -328 -416q-26 -104 -96 -104h-8q-24 0 -32 64z" />
<glyph unicode="&#xa1;" horiz-adv-x="672" d="M246 2099q8 96 96 96q88 -8 88 -72v-16q0 -72 -104 -136h-24q-56 40 -56 128zM270 1539q11 104 40 104h16q64 0 144 -768l16 -808q0 -138 -56 -152q-80 0 -80 848z" />
<glyph unicode="&#xa2;" horiz-adv-x="835" d="M42.5 966.5q-33.5 424.5 286.5 675.5h24q123 0 232 -144v-16l-40 -40l-120 32h-40q-250 -116 -236.5 -453.5t231.5 -342.5q248 0 321 259l8 8h16q40 -18 40 -80q28 -94 -106 -208.5t-287 -114.5q-296 0 -329.5 424.5zM262 1708q11 104 40 104h16q64 0 168 -1303 q0 -138 -56 -152q-80 0 -168 1351z" />
<glyph unicode="&#xa3;" horiz-adv-x="996" d="M-1.5 952q10.5 62 14.5 70.5t177 8.5l-17 218q18 185 176 400q126 105 288 128q152 -44 152 -144q-20 -56 -56 -56l-96 32h-32q-176 0 -296 -304l-24 -200l9 -50h104q93 0 159 1q26 -8 32 -32q0 -83 -279 -113l104 -727q-24 -72 -88 -72q-29 0 -121 756q7 19 -23 19 q-194 3 -183.5 65zM315 200q201 241 413 208.5t231 -162.5q-25 -14 -173 28t-329 -69q-51 -94 -119 -77l-8 2q-23 6 -15 70z" />
<glyph unicode="&#xa4;" />
<glyph unicode="&#xa5;" horiz-adv-x="1062" d="M19 1514v8q0 49 56 88h24q163 -168 304 -368q154 -231 225 -266h16l16 304v240l-41 227q0 72 40 72q85 -36 120 -120v-88l-23 -1387l12 -161q0 -80 -80 -80q-72 15 -72 64l44 761q-149 97 -279 278.5t-346 379.5zM318 417q0 72 232 72h56q406 13 406 -27v-16 q0 -46 -598 -141q-96 33 -96 112zM336 671q14 88 152 64h72q184 0 336 24q59 -16 80 -56v-32q0 -33 -448 -112q-192 24 -192 112z" />
<glyph unicode="&#xa6;" horiz-adv-x="508" d="M164 798q-5 113 74 113q72 0 72 -232v-56q-21 -348 -61 -348h-16q-129 21 -69 523zM189 1579q-5 113 74 113q72 0 72 -232v-56q-21 -348 -61 -348h-16q-129 21 -69 523z" />
<glyph unicode="&#xa7;" horiz-adv-x="930" d="M-34 204v16q5 48 24 48h16q20 -10 96 -144q48 -32 88 -32h80q100 0 328 136l16 24v32q-361 177 -439.5 308.5t-46 256t119.5 196.5t254 94.5t320 -161.5q16 -88 -40 -88h-8q-46 0 -176 113l-48 8h-32q-215 0 -254.5 -188.5t227.5 -339t267 -247.5v-8q0 -176 -432 -248 l-96 -8q-179 0 -256 184zM12 857v16q5 48 24 48h16q20 -10 96 -144q48 -32 88 -32h80q100 0 328 136l16 24v32q-361 177 -439.5 308.5t-46 256t119.5 196.5t254 94.5t320 -161.5q16 -88 -40 -88h-8q-46 0 -176 113l-48 8h-32q-215 0 -254.5 -188.5t227.5 -339t267 -247.5v-8 q0 -176 -432 -248l-96 -8q-179 0 -256 184z" />
<glyph unicode="&#xa8;" horiz-adv-x="570" d="M28 1941v16q0 72 92 84t92 -76q-8 -96 -96 -96q-88 8 -88 72zM326 1933v16q0 72 92 84t92 -76q-8 -96 -96 -96q-88 8 -88 72z" />
<glyph unicode="&#xa9;" horiz-adv-x="1674" />
<glyph unicode="&#xaa;" horiz-adv-x="648" />
<glyph unicode="&#xab;" horiz-adv-x="1170" d="M25 659q0 63 176 184q353 297 375 297h32q24 -8 24 -48q0 -72 -436 -433q80 -101 376 -312l75 -45q48 -48 48 -80q0 -40 -32 -48q-190 96 -414 240.5t-224 244.5zM422 671q0 63 176 184q353 297 375 297h32q24 -8 24 -48q0 -72 -436 -433q80 -101 376 -312l75 -45 q48 -48 48 -80q0 -40 -32 -48q-190 96 -414 240.5t-224 244.5z" />
<glyph unicode="&#xac;" />
<glyph unicode="&#xad;" horiz-adv-x="1145" d="M41 723q18 56 168 32h112l656 24q80 -25 76 -92t-188 -44h-8l-656 -48q-138 -16 -160 128z" />
<glyph unicode="&#xae;" horiz-adv-x="1674" />
<glyph unicode="&#xaf;" horiz-adv-x="930" d="M72 1923l8 58l369 -15q264 -29 264 -80v-16q-13 -32 -56 -32h-32q-148 24 -280 24q-285 20 -273 61z" />
<glyph unicode="&#xb0;" horiz-adv-x="674" d="M147.5 1531.5q-13.5 135.5 129.5 215.5l32 26h13q149 -41 149 -129q-33 -170 -142 -250q-168 2 -181.5 137.5zM277 1504h13q40 0 77 101v13q0 49 -26 58q-131 -112 -64 -172z" />
<glyph unicode="&#xb1;" horiz-adv-x="1120" d="M22 250q18 56 168 32h112l656 24q80 -25 76 -92t-188 -44h-8l-656 -48q-138 -16 -160 128zM80 792q35 96 104 96l136 -16h104l32 32q-24 173 -37 275q0 50 40 72h24q80 -41 80 -200l5 -155l416 40l24 -24h8q0 -88 -212 -121t-212 -63v-80l11 -198v-8q-4 -64 -64 -64 q-72 0 -67 134q0 224 -32 224l-264 -32q-58 0 -96 88z" />
<glyph unicode="&#xb2;" />
<glyph unicode="&#xb3;" />
<glyph unicode="&#xb4;" horiz-adv-x="475" d="M35 1707l110 124q181 274 268 216q40 -26 7 -91q-290 -360 -367 -309q-29 19 -18 60z" />
<glyph unicode="&#xb5;" horiz-adv-x="1180" />
<glyph unicode="&#xb6;" horiz-adv-x="1024" />
<glyph unicode="&#xb7;" horiz-adv-x="570" d="M251 671v16q0 72 104 136h24q56 -40 56 -128q-8 -96 -96 -96q-88 8 -88 72z" />
<glyph unicode="&#xb8;" horiz-adv-x="1085" d="M233 -307q4 16 40 32l32 -8q215 -135 327 -35.5t40 238.5q-78 0 -152 -24q-200 -51 -176 128q33 268 94 268h16q29 -7 40 -128l10 -44v-32l16 -24l112 8q216 -107 184.5 -298.5t-235.5 -248t-348 159.5v8z" />
<glyph unicode="&#xb9;" />
<glyph unicode="&#xba;" horiz-adv-x="718" />
<glyph unicode="&#xbb;" horiz-adv-x="1170" d="M25 234q0 32 48 80l75 45q296 211 376 312q-436 361 -436 433q0 40 24 48h32q22 0 375 -297q176 -121 176 -184q0 -100 -224 -244.5t-414 -240.5q-32 8 -32 48zM422 222q0 32 48 80l75 45q296 211 376 312q-436 361 -436 433q0 40 24 48h32q22 0 375 -297 q176 -121 176 -184q0 -100 -224 -244.5t-414 -240.5q-32 8 -32 48z" />
<glyph unicode="&#xbc;" horiz-adv-x="1708" />
<glyph unicode="&#xbd;" horiz-adv-x="1964" />
<glyph unicode="&#xbe;" horiz-adv-x="1708" />
<glyph unicode="&#xbf;" horiz-adv-x="1085" d="M179 324q0 200 288 416q122 64 176 64l112 -8l16 24v32l-32 400q11 121 40 128h16q61 0 136 -624l24 -88q0 -91 -88 -104q-20 0 -112 64q-74 24 -152 24q-112 0 -280 -264l-16 -96v-40q42 -128 160 -128q113 0 400 144l32 8q36 -16 40 -32v-8q0 -163 -472 -240 q-167 0 -264 192q-24 48 -24 136zM675 1753q0 40 40 64h32q144 0 144 -104q0 -62 -96 -96q-112 58 -112 136h-8z" />
<glyph unicode="&#xc0;" horiz-adv-x="901" d="M-141 2185q-30 58 6 81q78 52 240 -195l100 -111q10 -36 -17 -54q-69 -45 -329 279zM20 758q72 116 72 152q67 673 113 954q31 144 64 144q32 0 56 -184q77 -36 112 -168q127 -414 183 -722h16q48 0 224 48q32 0 36 -58t-228 -126l-16 -32l134 -732q-19 -64 -80 -64 q-64 0 -64 64v152q-62 564 -118 564h-32q-304 -24 -304 -96l-8 -128l-14 -489q0 -55 -72 -64q-56 0 -64 104q46 204 46 545zM204 878q0 -16 24 -16q288 35 288 48q0 225 -199 690l-32 24q-33 0 -81 -634v-112z" />
<glyph unicode="&#xc1;" horiz-adv-x="901" d="M20 758q72 116 72 152q67 673 113 954q31 144 64 144q32 0 56 -184q77 -36 112 -168q127 -414 183 -722h16q48 0 224 48q32 0 36 -58t-228 -126l-16 -32l134 -732q-19 -64 -80 -64q-64 0 -64 64v152q-62 564 -118 564h-32q-304 -24 -304 -96l-8 -128l-14 -489 q0 -55 -72 -64q-56 0 -64 104q46 204 46 545zM204 878q0 -16 24 -16q288 35 288 48q0 225 -199 690l-32 24q-33 0 -81 -634v-112zM323 1985l99 111q163 247 241 195q36 -23 6 -81q-261 -324 -330 -279q-26 18 -16 54z" />
<glyph unicode="&#xc2;" horiz-adv-x="901" d="M20 758q72 116 72 152q67 673 113 954q31 144 64 144q32 0 56 -184q77 -36 112 -168q127 -414 183 -722h16q48 0 224 48q32 0 36 -58t-228 -126l-16 -32l134 -732q-19 -64 -80 -64q-64 0 -64 64v152q-62 564 -118 564h-32q-304 -24 -304 -96l-8 -128l-14 -489 q0 -55 -72 -64q-56 0 -64 104q46 204 46 545zM104 1988v32q0 22 56 154.5t119 132.5q25 25 196 -296q-8 -32 -48 -32q-32 0 -80 48l-68 142l-127 -205q-40 0 -48 24zM204 878q0 -16 24 -16q288 35 288 48q0 225 -199 690l-32 24q-33 0 -81 -634v-112z" />
<glyph unicode="&#xc3;" horiz-adv-x="901" d="M-86 2178q109 -150 201 -82.5t209 115t215 29.5t129 -98t9 -107.5t-113.5 74t-291.5 -45.5t-315 -74.5t-43 189.5zM20 758q72 116 72 152q67 673 113 954q31 144 64 144q32 0 56 -184q77 -36 112 -168q127 -414 183 -722h16q48 0 224 48q32 0 36 -58t-228 -126l-16 -32 l134 -732q-19 -64 -80 -64q-64 0 -64 64v152q-62 564 -118 564h-32q-304 -24 -304 -96l-8 -128l-14 -489q0 -55 -72 -64q-56 0 -64 104q46 204 46 545zM204 878q0 -16 24 -16q288 35 288 48q0 225 -199 690l-32 24q-33 0 -81 -634v-112z" />
<glyph unicode="&#xc4;" horiz-adv-x="901" d="M20 758q72 116 72 152q67 673 113 954q31 144 64 144q32 0 56 -184q77 -36 112 -168q127 -414 183 -722h16q48 0 224 48q32 0 36 -58t-228 -126l-16 -32l134 -732q-19 -64 -80 -64q-64 0 -64 64v152q-62 564 -118 564h-32q-304 -24 -304 -96l-8 -128l-14 -489 q0 -55 -72 -64q-56 0 -64 104q46 204 46 545zM61 2119v16q0 72 92 84t92 -76q-8 -96 -96 -96q-88 8 -88 72zM204 878q0 -16 24 -16q288 35 288 48q0 225 -199 690l-32 24q-33 0 -81 -634v-112zM359 2111v16q0 72 92 84t92 -76q-8 -96 -96 -96q-88 8 -88 72z" />
<glyph unicode="&#xc5;" horiz-adv-x="901" d="M20 758q72 116 72 152q67 673 113 954q31 144 64 144q32 0 56 -184q77 -36 112 -168q127 -414 183 -722h16q48 0 224 48q32 0 36 -58t-228 -126l-16 -32l134 -732q-19 -64 -80 -64q-64 0 -64 64v152q-62 564 -118 564h-32q-304 -24 -304 -96l-8 -128l-14 -489 q0 -55 -72 -64q-56 0 -64 104q46 204 46 545zM114.5 2023.5q-13.5 135.5 129.5 215.5l32 26h13q149 -41 149 -129q-33 -170 -142 -250q-168 2 -181.5 137.5zM204 878q0 -16 24 -16q288 35 288 48q0 225 -199 690l-32 24q-33 0 -81 -634v-112zM244 1996h13q40 0 77 101v13 q0 49 -26 58q-131 -112 -64 -172z" />
<glyph unicode="&#xc6;" horiz-adv-x="1692" d="M20 758q72 116 72 152q67 673 113 954q31 144 64 144q32 0 56 -184q77 -36 112 -168q127 -414 183 -722h16q48 0 224 48q32 0 36 -58t-228 -126l-16 -32l134 -732q-19 -64 -80 -64q-64 0 -64 64v152q-62 564 -118 564h-32q-304 -24 -304 -96l-8 -128l-14 -489 q0 -55 -72 -64q-56 0 -64 104q46 204 46 545zM204 878q0 -16 24 -16q288 35 288 48q0 225 -199 690l-32 24q-33 0 -81 -634v-112zM562 942q0 32 80 80l8 24q0 128 -88 544q0 83 224 112l440 160h8q59 0 104 -104q0 -69 -504 -192l-96 -40l24 -496q3 -21 40 -32 q301 0 560 112h32q48 -5 48 -24v-24q0 -59 -304 -152q-344 -62 -344 -88v-480l8 -296h16v-8q81 1 352 144l416 96q31 -36 32 -72q0 -55 -344 -104q-362 -224 -496 -224q-88 0 -88 136l-16 768z" />
<glyph unicode="&#xc7;" horiz-adv-x="1215" d="M0 976q0 478 200 736q134 112 232 112q104 0 184 -104v-32l-64 -64l-64 32q-178 0 -240 -152q-128 -190 -128 -544q0 -530 232 -784q53 -48 104 -48h32q225 0 496 560q88 234 88 336l-16 56q0 30 48 64h8q72 0 72 -96q0 -329 -408 -896q-157 -152 -280 -152 q-375 0 -496 976zM337 -397q3 13 31 25l25 -6q169 -106 257 -28t31 187q-61 0 -119 -18q-157 -40 -138 100q26 210 74 210h12q23 -5 32 -100l7 -35v-25l13 -19l88 7q169 -84 144.5 -234.5t-184.5 -194.5t-273 125v6z" />
<glyph unicode="&#xc8;" horiz-adv-x="1111" d="M-37 2207q65 67 277 -138l121 -87q18 -33 -4 -56q-57 -59 -382 199q-42 51 -12 82zM0 1064q0 32 80 80l8 24q0 128 -88 544q0 83 224 112l440 160h8q59 0 104 -104q0 -69 -504 -192l-96 -40l24 -496q3 -21 40 -32q301 0 560 112h32q48 -5 48 -24v-24q0 -59 -304 -152 q-344 -62 -344 -88v-480l8 -296h16v-8q81 1 352 144l416 96q31 -36 32 -72q0 -55 -344 -104q-362 -224 -496 -224q-88 0 -88 136l-16 768z" />
<glyph unicode="&#xc9;" horiz-adv-x="1111" d="M0 1064q0 32 80 80l8 24q0 128 -88 544q0 83 224 112l440 160h8q59 0 104 -104q0 -69 -504 -192l-96 -40l24 -496q3 -21 40 -32q301 0 560 112h32q48 -5 48 -24v-24q0 -59 -304 -152q-344 -62 -344 -88v-480l8 -296h16v-8q81 1 352 144l416 96q31 -36 32 -72 q0 -55 -344 -104q-362 -224 -496 -224q-88 0 -88 136l-16 768zM384 2032l122 87q212 205 277 138q30 -31 -12 -82q-325 -258 -382 -199q-22 23 -5 56z" />
<glyph unicode="&#xca;" horiz-adv-x="1111" d="M0 1064q0 32 80 80l8 24q0 128 -88 544q0 83 224 112l440 160h8q59 0 104 -104q0 -69 -504 -192l-96 -40l24 -496q3 -21 40 -32q301 0 560 112h32q48 -5 48 -24v-24q0 -59 -304 -152q-344 -62 -344 -88v-480l8 -296h16v-8q81 1 352 144l416 96q31 -36 32 -72 q0 -55 -344 -104q-362 -224 -496 -224q-88 0 -88 136l-16 768zM104 1988v32q0 22 56 154.5t119 132.5q25 25 196 -296q-8 -32 -48 -32q-32 0 -80 48l-68 142l-127 -205q-40 0 -48 24z" />
<glyph unicode="&#xcb;" horiz-adv-x="1111" d="M0 1064q0 32 80 80l8 24q0 128 -88 544q0 83 224 112l440 160h8q59 0 104 -104q0 -69 -504 -192l-96 -40l24 -496q3 -21 40 -32q301 0 560 112h32q48 -5 48 -24v-24q0 -59 -304 -152q-344 -62 -344 -88v-480l8 -296h16v-8q81 1 352 144l416 96q31 -36 32 -72 q0 -55 -344 -104q-362 -224 -496 -224q-88 0 -88 136l-16 768zM135 2108v16q0 69 88.5 80.5t88.5 -73.5q-8 -92 -92 -92q-85 8 -85 69zM507 2116v15q0 69 88.5 81t88.5 -73q-8 -92 -93 -92q-84 7 -84 69z" />
<glyph unicode="&#xcc;" horiz-adv-x="502" d="M-215 2244q65 67 277 -138l121 -87q18 -33 -4 -56q-57 -59 -382 199q-42 51 -12 82zM113 1826q19 88 64 88q104 -19 104 -88l8 -184v-240q37 -1234 112 -1234l8 -48q0 -80 -80 -120q-88 0 -88 208q0 416 -128 1618z" />
<glyph unicode="&#xcd;" horiz-adv-x="502" d="M100 2053l121 87q212 205 277 138q30 -31 -12 -82q-325 -258 -382 -199q-22 23 -4 56zM113 1826q19 88 64 88q104 -19 104 -88l8 -184v-240q37 -1234 112 -1234l8 -48q0 -80 -80 -120q-88 0 -88 208q0 416 -128 1618z" />
<glyph unicode="&#xce;" horiz-adv-x="502" d="M104 1988v32q0 22 56 154.5t119 132.5q25 25 196 -296q-8 -32 -48 -32q-32 0 -80 48l-68 142l-127 -205q-40 0 -48 24zM113 1826q19 88 64 88q104 -19 104 -88l8 -184v-240q37 -1234 112 -1234l8 -48q0 -80 -80 -120q-88 0 -88 208q0 416 -128 1618z" />
<glyph unicode="&#xcf;" horiz-adv-x="502" d="M3 2104v16q0 69 88.5 80.5t88.5 -73.5q-8 -92 -92 -92q-85 8 -85 69zM113 1826q19 88 64 88q104 -19 104 -88l8 -184v-240q37 -1234 112 -1234l8 -48q0 -80 -80 -120q-88 0 -88 208q0 416 -128 1618zM276 2111v15q0 69 88.5 81t88.5 -73q-8 -92 -93 -92q-84 7 -84 69z " />
<glyph unicode="&#xd0;" horiz-adv-x="998" d="M0 1896q26 104 128 104q70 0 144 -128q176 -50 504 -392q176 -270 176 -632q0 -454 -392 -784q-130 -64 -184 -64q-192 46 -192 192l24 112q-78 1520 -168 1520zM15 1073q18 92 307 35l149 -7q33 -19 27 -50q-16 -81 -429 -40q-62 19 -54 62zM232 1720 q48 -1175 128 -1496l8 -96h16q164 0 328 280q128 260 128 496q0 612 -568 808z" />
<glyph unicode="&#xd1;" horiz-adv-x="1064" d="M0 1704q21 72 96 72q171 0 288 -376q197 -368 448 -912h16l8 440v72l-8 144l8 136v48q0 132 -32 352q24 72 88 72q56 -23 56 -72q16 -1163 32 -1360q0 -184 -40 -184h-16q-102 0 -176 256q-307 681 -456 928q-63 121 -128 176h-8v-384q0 -560 64 -1048q0 -42 -48 -64h-32 q-71 0 -88 656q0 416 -72 1048zM100 2074q109 -150 201 -82.5t209 115t215 29.5t129 -98t9 -107.5t-113.5 74t-291.5 -45.5t-315 -74.5t-43 189.5z" />
<glyph unicode="&#xd2;" horiz-adv-x="918" d="M-53 2092q65 67 277 -138l121 -87q18 -33 -4 -56q-57 -59 -382 199q-42 51 -12 82zM0 1048q43 481 120 536q73 119 216 168q96 0 328 -288q176 -339 176 -640q0 -443 -296 -768q-87 -56 -136 -56q-150 0 -228.5 175.5t-126.5 402t-53 470.5zM112 1120q0 -677 208 -960 q34 -32 64 -32h40q115 0 201.5 200t86.5 440v104q0 278 -72 384q-47 157 -128 232h-16q-11 -56 -32 -56h-8q-16 0 -80 120h-24q-29 -30 -96 -40q-96 -136 -144 -384v-8z" />
<glyph unicode="&#xd3;" horiz-adv-x="918" d="M0 1048q43 481 120 536q73 119 216 168q96 0 328 -288q176 -339 176 -640q0 -443 -296 -768q-87 -56 -136 -56q-150 0 -228.5 175.5t-126.5 402t-53 470.5zM112 1120q0 -677 208 -960q34 -32 64 -32h40q115 0 201.5 200t86.5 440v104q0 278 -72 384q-47 157 -128 232h-16 q-11 -56 -32 -56h-8q-16 0 -80 120h-24q-29 -30 -96 -40q-96 -136 -144 -384v-8zM252 1924l122 87q212 205 277 138q30 -31 -12 -82q-325 -258 -382 -199q-22 23 -5 56z" />
<glyph unicode="&#xd4;" horiz-adv-x="918" d="M0 1048q43 481 120 536q73 119 216 168q96 0 328 -288q176 -339 176 -640q0 -443 -296 -768q-87 -56 -136 -56q-150 0 -228.5 175.5t-126.5 402t-53 470.5zM112 1120q0 -677 208 -960q34 -32 64 -32h40q115 0 201.5 200t86.5 440v104q0 278 -72 384q-47 157 -128 232h-16 q-11 -56 -32 -56h-8q-16 0 -80 120h-24q-29 -30 -96 -40q-96 -136 -144 -384v-8zM162 1881v32q0 22 56 154.5t119 132.5q25 25 196 -296q-8 -32 -48 -32q-32 0 -80 48l-68 142l-127 -205q-40 0 -48 24z" />
<glyph unicode="&#xd5;" horiz-adv-x="918" d="M-86 2178q109 -150 201 -82.5t209 115t215 29.5t129 -98t9 -107.5t-113.5 74t-291.5 -45.5t-315 -74.5t-43 189.5zM0 1048q43 481 120 536q73 119 216 168q96 0 328 -288q176 -339 176 -640q0 -443 -296 -768q-87 -56 -136 -56q-150 0 -228.5 175.5t-126.5 402t-53 470.5 zM112 1120q0 -677 208 -960q34 -32 64 -32h40q115 0 201.5 200t86.5 440v104q0 278 -72 384q-47 157 -128 232h-16q-11 -56 -32 -56h-8q-16 0 -80 120h-24q-29 -30 -96 -40q-96 -136 -144 -384v-8z" />
<glyph unicode="&#xd6;" horiz-adv-x="918" d="M0 1048q43 481 120 536q73 119 216 168q96 0 328 -288q176 -339 176 -640q0 -443 -296 -768q-87 -56 -136 -56q-150 0 -228.5 175.5t-126.5 402t-53 470.5zM97 1926v16q0 69 88.5 80.5t88.5 -73.5q-8 -92 -92 -92q-85 8 -85 69zM112 1120q0 -677 208 -960q34 -32 64 -32 h40q115 0 201.5 200t86.5 440v104q0 278 -72 384q-47 157 -128 232h-16q-11 -56 -32 -56h-8q-16 0 -80 120h-24q-29 -30 -96 -40q-96 -136 -144 -384v-8zM361 1938v15q0 69 88.5 81t88.5 -73q-8 -92 -93 -92q-84 7 -84 69z" />
<glyph unicode="&#xd7;" horiz-adv-x="999" d="M123 1092q22 120 132 66l239 -460q50 51 238 419q95 33 104 -96q0 -30 -102 -147q-128 -248 -128 -296v-8q287 -365 308 -471v-8q-16 -48 -64 -48h-8q-107 0 -152 208l-124 207h-24q-28 -25 -180 -385l-64 -56q-133 33 -3.5 246t143.5 323v8q-162 207 -238.5 330 t-76.5 168z" />
<glyph unicode="&#xd8;" horiz-adv-x="918" d="M0 1048q43 481 120 536q73 119 216 168q96 0 328 -288q176 -339 176 -640q0 -443 -296 -768q-87 -56 -136 -56q-150 0 -228.5 175.5t-126.5 402t-53 470.5zM80 -88q-60 23 146 767l351 1085q51 129 108 121q74 -29 -306 -1145l-209 -752q-49 -93 -76 -82zM112 1120 q0 -677 208 -960q34 -32 64 -32h40q115 0 201.5 200t86.5 440v104q0 278 -72 384q-47 157 -128 232h-16q-11 -56 -32 -56h-8q-16 0 -80 120h-24q-29 -30 -96 -40q-96 -136 -144 -384v-8z" />
<glyph unicode="&#xd9;" horiz-adv-x="1044" d="M-37 2207q65 67 277 -138l121 -87q18 -33 -4 -56q-57 -59 -382 199q-42 51 -12 82zM-3 1607q39 144 80 144h16q80 -47 80 -176v-160q3 -473 219 -1167l24 -16h24q114 113 184 352q96 414 96 544v24l-27 511q18 72 40 72h32q112 0 112 -192l59 -1159q0 -227 32 -296 q-16 -88 -72 -88q-80 0 -80 304l-8 440l-8 8h-8q-189 -696 -360 -696q-187 0 -403 1487z" />
<glyph unicode="&#xda;" horiz-adv-x="1044" d="M-3 1607q39 144 80 144h16q80 -47 80 -176v-160q3 -473 219 -1167l24 -16h24q114 113 184 352q96 414 96 544v24l-27 511q18 72 40 72h32q112 0 112 -192l59 -1159q0 -227 32 -296q-16 -88 -72 -88q-80 0 -80 304l-8 440l-8 8h-8q-189 -696 -360 -696q-187 0 -403 1487z M594 1958l122 87q212 205 277 138q30 -31 -12 -82q-325 -258 -382 -199q-22 23 -5 56z" />
<glyph unicode="&#xdb;" horiz-adv-x="1044" d="M-3 1607q39 144 80 144h16q80 -47 80 -176v-160q3 -473 219 -1167l24 -16h24q114 113 184 352q96 414 96 544v24l-27 511q18 72 40 72h32q112 0 112 -192l59 -1159q0 -227 32 -296q-16 -88 -72 -88q-80 0 -80 304l-8 440l-8 8h-8q-189 -696 -360 -696q-187 0 -403 1487z M249 1947v32q0 22 56 154.5t119 132.5q25 25 196 -296q-8 -32 -48 -32q-32 0 -80 48l-68 142l-127 -205q-40 0 -48 24z" />
<glyph unicode="&#xdc;" horiz-adv-x="1044" d="M-3 1607q39 144 80 144h16q80 -47 80 -176v-160q3 -473 219 -1167l24 -16h24q114 113 184 352q96 414 96 544v24l-27 511q18 72 40 72h32q112 0 112 -192l59 -1159q0 -227 32 -296q-16 -88 -72 -88q-80 0 -80 304l-8 440l-8 8h-8q-189 -696 -360 -696q-187 0 -403 1487z M208 1943v16q0 69 88.5 80.5t88.5 -73.5q-8 -92 -92 -92q-85 8 -85 69zM472 1955v15q0 69 88.5 81t88.5 -73q-8 -92 -93 -92q-84 7 -84 69z" />
<glyph unicode="&#xdd;" horiz-adv-x="1101" d="M3 1597v8q0 49 56 88h24q163 -168 304 -368q385 -413 456 -448h16l16 304v240l-24 480q0 72 40 72q85 -36 120 -120v-88l-40 -1640l16 -384q0 -80 -80 -80q-72 15 -72 64l40 984q-149 97 -392 376q-248 266 -464 464zM774 2164l122 87q212 205 277 138q30 -31 -12 -82 q-325 -258 -382 -199q-22 23 -5 56z" />
<glyph unicode="&#xde;" horiz-adv-x="1186" d="M18 1826q19 88 64 88q104 -19 104 -88l8 -184v-240q37 -1234 112 -1234l8 -48q0 -80 -80 -120q-88 0 -88 208q0 416 -128 1618zM63 711q1007 -20 951.5 220t-594.5 340l-149 35l-70 23q-53 7 -87 76q13 111 218 62q800 -227 796.5 -509.5t-370.5 -345t-496 -52.5l-24 2 q-43 6 -79 75q9 73 114 74h-210z" />
<glyph unicode="&#xdf;" horiz-adv-x="1099" d="M9 1429q19 88 64 88q104 -19 104 -88l8 -184v-240q37 -1234 112 -1234l8 -48q0 -80 -80 -120q-88 0 -88 208q0 416 -128 1618zM23 1406q69 182 201 234q58 23 206 21q433 -138 528 -378t91 -298q-23 -224 -194 -291l-128 -25l-9 -21q225 -265 266 -368q58 -243 -65 -292 l-56 -13q-285 25 -541 259q22 129 64 145q51 1 91 -101q129 -88 138 -109q187 -81 239 -61q52 21 25 88l-35 89q-63 160 -397 420q-85 26 -122 89q-13 81 30 98q286 -119 444 -57l75 29q126 50 32 288l-14 38q-32 81 -83 122q-321 286 -491 219l-74 -29q-76 -30 -184 -124 l-25 -2z" />
<glyph unicode="&#xe0;" horiz-adv-x="908" d="M0 568q22 565 270 756l96 32l120 -8l72 64q96 -49 96 -376q40 -198 66 -628l80 -304q0 -81 -80 -104q-80 0 -80 304l-42 468h-16q-88 -371 -262 -684q-45 -72 -182.5 -76t-137.5 556zM37 1843q65 67 277 -138l121 -87q18 -33 -4 -56q-57 -59 -382 199q-42 51 -12 82z M88 504q20 -360 80 -360q188 0 334 836l8 168v104h-8q-211 0 -248 -88q-160 -245 -166 -660z" />
<glyph unicode="&#xe1;" horiz-adv-x="908" d="M0 568q22 565 270 756l96 32l120 -8l72 64q96 -49 96 -376q40 -198 66 -628l80 -304q0 -81 -80 -104q-80 0 -80 304l-42 468h-16q-88 -371 -262 -684q-45 -72 -182.5 -76t-137.5 556zM88 504q20 -360 80 -360q188 0 334 836l8 168v104h-8q-211 0 -248 -88 q-160 -245 -166 -660zM300 1609l122 87q212 205 277 138q30 -31 -12 -82q-325 -258 -382 -199q-22 23 -5 56z" />
<glyph unicode="&#xe2;" horiz-adv-x="908" d="M0 568q22 565 270 756l96 32l120 -8l72 64q96 -49 96 -376q40 -198 66 -628l80 -304q0 -81 -80 -104q-80 0 -80 304l-42 468h-16q-88 -371 -262 -684q-45 -72 -182.5 -76t-137.5 556zM88 504q20 -360 80 -360q188 0 334 836l8 168v104h-8q-211 0 -248 -88 q-160 -245 -166 -660zM199 1591v32q0 22 56 154.5t119 132.5q25 25 196 -296q-8 -32 -48 -32q-32 0 -80 48l-68 142l-127 -205q-40 0 -48 24z" />
<glyph unicode="&#xe3;" horiz-adv-x="908" d="M0 568q22 565 270 756l96 32l120 -8l72 64q96 -49 96 -376q40 -198 66 -628l80 -304q0 -81 -80 -104q-80 0 -80 304l-42 468h-16q-88 -371 -262 -684q-45 -72 -182.5 -76t-137.5 556zM71 1715q78 -150 144 -82.5t150 115t154 29.5t92 -98t6.5 -107.5t-81 74t-209 -45.5 t-225.5 -74.5t-31 189.5zM88 504q20 -360 80 -360q188 0 334 836l8 168v104h-8q-211 0 -248 -88q-160 -245 -166 -660z" />
<glyph unicode="&#xe4;" horiz-adv-x="908" d="M0 568q22 565 270 756l96 32l120 -8l72 64q96 -49 96 -376q40 -198 66 -628l80 -304q0 -81 -80 -104q-80 0 -80 304l-42 468h-16q-88 -371 -262 -684q-45 -72 -182.5 -76t-137.5 556zM88 504q20 -360 80 -360q188 0 334 836l8 168v104h-8q-211 0 -248 -88 q-160 -245 -166 -660zM138 1583v16q0 69 88.5 80.5t88.5 -73.5q-8 -92 -92 -92q-85 8 -85 69zM402 1595v15q0 69 88.5 81t88.5 -73q-8 -92 -93 -92q-84 7 -84 69z" />
<glyph unicode="&#xe5;" horiz-adv-x="908" d="M0 568q22 565 270 756l96 32l120 -8l72 64q96 -49 96 -376q40 -198 66 -628l80 -304q0 -81 -80 -104q-80 0 -80 304l-42 468h-16q-88 -371 -262 -684q-45 -72 -182.5 -76t-137.5 556zM88 504q20 -360 80 -360q188 0 334 836l8 168v104h-8q-211 0 -248 -88 q-160 -245 -166 -660zM267.5 1585.5q-13.5 135.5 129.5 215.5l32 26h13q149 -41 149 -129q-33 -170 -142 -250q-168 2 -181.5 137.5zM397 1558h13q40 0 77 101v13q0 49 -26 58q-131 -112 -64 -172z" />
<glyph unicode="&#xe6;" horiz-adv-x="1645" d="M0 568q22 565 270 756l96 32l120 -8l72 64q96 -49 96 -376q40 -198 66 -628l80 -304q0 -81 -80 -104q-80 0 -80 304l-42 468h-16q-88 -371 -262 -684q-45 -72 -182.5 -76t-137.5 556zM88 504q20 -360 80 -360q188 0 334 836l8 168v104h-8q-211 0 -248 -88 q-160 -245 -166 -660zM620 557v104q0 322 101.5 498.5t282.5 181.5q197 -75 208 -352v-16q0 -187 -272 -384l-200 -104v-24q0 -243 200 -288h64q210 0 440 384q37 124 64 128h24q48 -28 48 -80q-53 -160 -272 -416q-184 -150 -312 -168q-181 0 -320 256q-56 115 -56 280z M740 677l16 -16h8q122 0 288 216q24 43 32 112q0 208 -128 208q-116 0 -208 -416z" />
<glyph unicode="&#xe7;" horiz-adv-x="905" d="M0 584v72q33 582 341 717h24q123 0 232 -144v-16l-40 -40l-120 32h-40q-238 0 -293 -605q0 -464 280 -464q248 0 424 520l8 8h16q40 -18 40 -80q-26 -198 -208 -440q-135 -144 -288 -144q-296 0 -368 480zM230 -393q3 13 31 25l25 -6q169 -106 257 -28t31 187 q-61 0 -119 -18q-157 -40 -138 100q26 210 74 210h12q23 -5 32 -100l7 -35v-25l13 -19l88 7q169 -84 144.5 -234.5t-184.5 -194.5t-273 125v6z" />
<glyph unicode="&#xe8;" horiz-adv-x="896" d="M-116 1653q65 67 277 -138l121 -87q18 -33 -4 -56q-57 -59 -382 199q-42 51 -12 82zM0 536v104q0 322 101.5 498.5t282.5 181.5q197 -75 208 -352v-16q0 -187 -272 -384l-200 -104v-24q0 -243 200 -288h64q210 0 440 384q37 124 64 128h24q48 -28 48 -80 q-53 -160 -272 -416q-184 -150 -312 -168q-181 0 -320 256q-56 115 -56 280zM120 656l16 -16h8q122 0 288 216q24 43 32 112q0 208 -128 208q-116 0 -208 -416z" />
<glyph unicode="&#xe9;" horiz-adv-x="896" d="M0 536v104q0 322 101.5 498.5t282.5 181.5q197 -75 208 -352v-16q0 -187 -272 -384l-200 -104v-24q0 -243 200 -288h64q210 0 440 384q37 124 64 128h24q48 -28 48 -80q-53 -160 -272 -416q-184 -150 -312 -168q-181 0 -320 256q-56 115 -56 280zM120 656l16 -16h8 q122 0 288 216q24 43 32 112q0 208 -128 208q-116 0 -208 -416zM231 1502l122 87q212 205 277 138q30 -31 -12 -82q-325 -258 -382 -199q-22 23 -5 56z" />
<glyph unicode="&#xea;" horiz-adv-x="896" d="M0 536v104q0 322 101.5 498.5t282.5 181.5q197 -75 208 -352v-16q0 -187 -272 -384l-200 -104v-24q0 -243 200 -288h64q210 0 440 384q37 124 64 128h24q48 -28 48 -80q-53 -160 -272 -416q-184 -150 -312 -168q-181 0 -320 256q-56 115 -56 280zM120 656l16 -16h8 q122 0 288 216q24 43 32 112q0 208 -128 208q-116 0 -208 -416zM133 1430v32q0 22 56 154.5t119 132.5q25 25 196 -296q-8 -32 -48 -32q-32 0 -80 48l-68 142l-127 -205q-40 0 -48 24z" />
<glyph unicode="&#xeb;" horiz-adv-x="896" d="M0 536v104q0 322 101.5 498.5t282.5 181.5q197 -75 208 -352v-16q0 -187 -272 -384l-200 -104v-24q0 -243 200 -288h64q210 0 440 384q37 124 64 128h24q48 -28 48 -80q-53 -160 -272 -416q-184 -150 -312 -168q-181 0 -320 256q-56 115 -56 280zM89 1533v16 q0 69 88.5 80.5t88.5 -73.5q-8 -92 -92 -92q-85 8 -85 69zM120 656l16 -16h8q122 0 288 216q24 43 32 112q0 208 -128 208q-116 0 -208 -416zM353 1545v15q0 69 88.5 81t88.5 -73q-8 -92 -93 -92q-84 7 -84 69z" />
<glyph unicode="&#xec;" horiz-adv-x="492" d="M-157 1739q65 67 277 -138l121 -87q18 -33 -4 -56q-57 -59 -382 199q-42 51 -12 82zM134 1200q28 56 64 56q96 0 96 -136l40 -1040q-16 -59 -88 -39t-72 63l8 296q0 525 -48 800z" />
<glyph unicode="&#xed;" horiz-adv-x="430" d="M66 1527l121 87q212 205 277 138q30 -31 -12 -82q-325 -258 -382 -199q-22 23 -4 56zM72 1200q28 56 64 56q96 0 96 -136l40 -1040q-16 -59 -88 -39t-72 63l8 296q0 525 -48 800z" />
<glyph unicode="&#xee;" horiz-adv-x="430" d="M-28 1368v32q0 22 56 154.5t119 132.5q25 25 196 -296q-8 -32 -48 -32q-32 0 -80 48l-68 142l-127 -205q-40 0 -48 24zM72 1200q28 56 64 56q96 0 96 -136l40 -1040q-16 -59 -88 -39t-72 63l8 296q0 525 -48 800z" />
<glyph unicode="&#xef;" horiz-adv-x="430" d="M-97 1434v16q0 69 88.5 80.5t88.5 -73.5q-8 -92 -92 -92q-85 8 -85 69zM72 1200q28 56 64 56q96 0 96 -136l40 -1040q-16 -59 -88 -39t-72 63l8 296q0 525 -48 800zM167 1446v15q0 69 88.5 81t88.5 -73q-8 -92 -93 -92q-84 7 -84 69z" />
<glyph unicode="&#xf0;" horiz-adv-x="860" d="M0 760q0 227 104 472q99 88 208 88q326 0 424 -520q-7 -637 -392 -800q-206 0 -288 216q-56 220 -56 544zM96 624q0 -382 160 -496l48 -8q140 0 304 416q24 87 24 168q0 265 -160 448h-32q-13 0 -32 -56l-40 -8h-112q-79 -39 -128 -176q-32 -127 -32 -288zM148 1576 q0 100 152 144q162 -23 288 -128q158 -215 176 -400q24 -303 -18 -500.5t-71 -197.5q-64 0 -49 170l26 384l-24 200q-120 304 -296 304h-32l-96 -32q-36 0 -56 56zM362 1459q7 56 69 32h46l271 24q33 -25 31 -92t-77 -44h-4l-270 -48q-57 -16 -66 128z" />
<glyph unicode="&#xf1;" horiz-adv-x="1042" d="M20 1277q0 77 128 104q80 0 80 -128q0 -296 40 -528h16q59 293 216 456q49 46 96 48q229 0 320 -672l80 -552q0 -56 -55.5 -80t-152.5 768l-88 280q-54 100 -72 104h-8q-180 0 -272 -632q-16 -83 -16 -296v-40q0 -63 -96 -88q-64 0 -64 600q-81 624 -136 624zM224 1666 q78 -150 144 -82.5t150 115t154 29.5t92 -98t6.5 -107.5t-81 74t-209 -45.5t-225.5 -74.5t-31 189.5z" />
<glyph unicode="&#xf2;" horiz-adv-x="860" d="M-83 1699q65 67 277 -138l121 -87q18 -33 -4 -56q-57 -59 -382 199q-42 51 -12 82zM0 760q0 227 104 472q99 88 208 88q326 0 424 -520q-7 -637 -392 -800q-206 0 -288 216q-56 220 -56 544zM96 624q0 -382 160 -496l48 -8q140 0 304 416q24 87 24 168q0 265 -160 448 h-32q-13 0 -32 -56l-40 -8h-112q-79 -39 -128 -176q-32 -127 -32 -288z" />
<glyph unicode="&#xf3;" horiz-adv-x="1010" d="M0 760q0 227 104 472q99 88 208 88q326 0 424 -520q-7 -637 -392 -800q-206 0 -288 216q-56 220 -56 544zM96 624q0 -382 160 -496l48 -8q140 0 304 416q24 87 24 168q0 265 -160 448h-32q-13 0 -32 -56l-40 -8h-112q-79 -39 -128 -176q-32 -127 -32 -288zM310 1432 l121 87q212 205 277 138q30 -31 -12 -82q-325 -258 -382 -199q-22 23 -4 56z" />
<glyph unicode="&#xf4;" horiz-adv-x="860" d="M0 760q0 227 104 472q99 88 208 88q326 0 424 -520q-7 -637 -392 -800q-206 0 -288 216q-56 220 -56 544zM83 1392v32q0 22 56 154.5t119 132.5q25 25 196 -296q-8 -32 -48 -32q-32 0 -80 48l-68 142l-127 -205q-40 0 -48 24zM96 624q0 -382 160 -496l48 -8 q140 0 304 416q24 87 24 168q0 265 -160 448h-32q-13 0 -32 -56l-40 -8h-112q-79 -39 -128 -176q-32 -127 -32 -288z" />
<glyph unicode="&#xf5;" horiz-adv-x="860" d="M0 760q0 227 104 472q99 88 208 88q326 0 424 -520q-7 -637 -392 -800q-206 0 -288 216q-56 220 -56 544zM96 624q0 -382 160 -496l48 -8q140 0 304 416q24 87 24 168q0 265 -160 448h-32q-13 0 -32 -56l-40 -8h-112q-79 -39 -128 -176q-32 -127 -32 -288zM104 1707 q78 -150 144 -82.5t150 115t154 29.5t92 -98t6.5 -107.5t-81 74t-209 -45.5t-225.5 -74.5t-31 189.5z" />
<glyph unicode="&#xf6;" horiz-adv-x="860" d="M0 760q0 227 104 472q99 88 208 88q326 0 424 -520q-7 -637 -392 -800q-206 0 -288 216q-56 220 -56 544zM89 1475v16q0 69 88.5 80.5t88.5 -73.5q-8 -92 -92 -92q-85 8 -85 69zM96 624q0 -382 160 -496l48 -8q140 0 304 416q24 87 24 168q0 265 -160 448h-32 q-13 0 -32 -56l-40 -8h-112q-79 -39 -128 -176q-32 -127 -32 -288zM353 1487v15q0 69 88.5 81t88.5 -73q-8 -92 -93 -92q-84 7 -84 69z" />
<glyph unicode="&#xf7;" horiz-adv-x="1145" d="M17 690q18 56 168 32h112l656 24q80 -25 76 -92t-188 -44h-8l-656 -48q-138 -16 -160 128zM429 921v16q0 72 104 136h24q56 -40 56 -128q-8 -96 -96 -96q-88 8 -88 72zM430 224v16q0 72 104 136h24q56 -40 56 -128q-8 -96 -96 -96q-88 8 -88 72z" />
<glyph unicode="&#xf8;" horiz-adv-x="860" d="M0 760q0 227 104 472q99 88 208 88q326 0 424 -520q-7 -637 -392 -800q-206 0 -288 216q-56 220 -56 544zM80 -88q-60 23 146 767l252 825q51 129 108 121q74 -29 -207 -885l-209 -752q-49 -93 -76 -82zM96 624q0 -382 160 -496l48 -8q140 0 304 416q24 87 24 168 q0 265 -160 448h-32q-13 0 -32 -56l-40 -8h-112q-79 -39 -128 -176q-32 -127 -32 -288z" />
<glyph unicode="&#xf9;" horiz-adv-x="930" d="M-133 1790q65 67 277 -138l121 -87q18 -33 -4 -56q-57 -59 -382 199q-42 51 -12 82zM18 1221v24q0 43 64 88q74 0 88 -104v-72q42 -976 120 -976q177 197 264 680l16 152l-8 224q0 53 64 96q112 0 112 -360l88 -1032l-48 -40q-88 0 -88 136q-27 600 -48 600 q-230 -632 -352 -632q-118 0 -136 152q-104 655 -136 1064z" />
<glyph unicode="&#xfa;" horiz-adv-x="930" d="M18 1221v24q0 43 64 88q74 0 88 -104v-72q42 -976 120 -976q177 197 264 680l16 152l-8 224q0 53 64 96q112 0 112 -360l88 -1032l-48 -40q-88 0 -88 136q-27 600 -48 600q-230 -632 -352 -632q-118 0 -136 152q-104 655 -136 1064zM297 1609l122 87q212 205 277 138 q30 -31 -12 -82q-325 -258 -382 -199q-22 23 -5 56z" />
<glyph unicode="&#xfb;" horiz-adv-x="930" d="M18 1221v24q0 43 64 88q74 0 88 -104v-72q42 -976 120 -976q177 197 264 680l16 152l-8 224q0 53 64 96q112 0 112 -360l88 -1032l-48 -40q-88 0 -88 136q-27 600 -48 600q-230 -632 -352 -632q-118 0 -136 152q-104 655 -136 1064zM199 1591v32q0 22 56 154.5t119 132.5 q25 25 196 -296q-8 -32 -48 -32q-32 0 -80 48l-68 142l-127 -205q-40 0 -48 24z" />
<glyph unicode="&#xfc;" horiz-adv-x="930" d="M18 1221v24q0 43 64 88q74 0 88 -104v-72q42 -976 120 -976q177 197 264 680l16 152l-8 224q0 53 64 96q112 0 112 -360l88 -1032l-48 -40q-88 0 -88 136q-27 600 -48 600q-230 -632 -352 -632q-118 0 -136 152q-104 655 -136 1064zM126 1550v16q0 69 88.5 80.5 t88.5 -73.5q-8 -92 -92 -92q-85 8 -85 69zM390 1562v15q0 69 88.5 81t88.5 -73q-8 -92 -93 -92q-84 7 -84 69z" />
<glyph unicode="&#xfd;" horiz-adv-x="868" d="M18 1127q2 35 94 82l24 -2q33 -2 43 -195q28 -516 81 -711q45 -155 112 -159.5t210 539.5l25 255q13 196 -33 355q7 103 79 99l8 -1q111 -7 94 -271q50 -813 24 -1212l-8 -120q-31 -475 -153 -607q-4 -61 -205 -83q-173 12 -344 264l2 24l17 15l24 -2q182 -164 245 -169 l48 -3q224 -15 259 512l22 215q36 551 -20 555h-8q-153 -535 -323 -524q-171 86 -200.5 288.5t-96.5 789.5zM364 1461l91 118q144 257 225 212q38 -21 13 -81q-236 -342 -308 -302q-28 15 -21 53z" />
<glyph unicode="&#xfe;" horiz-adv-x="963" d="M30 1342q19 88 64 88q104 -19 104 -88l8 -184v-240q37 -1234 112 -1234l8 -48q0 -80 -80 -120q-88 0 -88 208q0 416 -128 1618zM126 826q13 111 218 62q581 -173 571 -383t-267.5 -299.5t-386.5 -79.5l-24 2q-43 6 -79 75q9 73 114 74q578 34 529 201.5t-369 213.5 l-149 35l-70 23q-53 7 -87 76z" />
<glyph unicode="&#xff;" horiz-adv-x="868" d="M18 1127q2 35 94 82l24 -2q33 -2 43 -195q28 -516 81 -711q45 -155 112 -159.5t210 539.5l25 255q13 196 -33 355q7 103 79 99l8 -1q111 -7 94 -271q50 -813 24 -1212l-8 -120q-31 -475 -153 -607q-4 -61 -205 -83q-173 12 -344 264l2 24l17 15l24 -2q182 -164 245 -169 l48 -3q224 -15 259 512l22 215q36 551 -20 555h-8q-153 -535 -323 -524q-171 86 -200.5 288.5t-96.5 789.5zM109 1492v16q0 69 88.5 80.5t88.5 -73.5q-8 -92 -92 -92q-85 8 -85 69zM373 1504v15q0 69 88.5 81t88.5 -73q-8 -92 -93 -92q-84 7 -84 69z" />
<glyph unicode="&#x152;" horiz-adv-x="1732" d="M0 1048q43 481 120 536q73 119 216 168q96 0 328 -288q176 -339 176 -640q0 -443 -296 -768q-87 -56 -136 -56q-150 0 -228.5 175.5t-126.5 402t-53 470.5zM112 1120q0 -677 208 -960q34 -32 64 -32h40q115 0 201.5 200t86.5 440v104q0 278 -72 384q-47 157 -128 232h-16 q-11 -56 -32 -56h-8q-16 0 -80 120h-24q-29 -30 -96 -40q-96 -136 -144 -384v-8zM636 1712q0 83 224 112l440 160h8q59 0 104 -104q0 -69 -504 -192l-96 -40l24 -496q3 -21 40 -32q301 0 560 112h32q48 -5 48 -24v-24q0 -59 -304 -152q-344 -62 -344 -88v-480l8 -296h16v-8 q81 1 352 144l416 96q31 -36 32 -72q0 -55 -344 -104q-362 -224 -496 -224q-88 0 -88 136l-16 768l-32 240l8 24q0 128 -88 544z" />
<glyph unicode="&#x153;" horiz-adv-x="1632" d="M0 760q0 227 104 472q99 88 208 88q326 0 424 -520q-7 -637 -392 -800q-206 0 -288 216q-56 220 -56 544zM96 624q0 -382 160 -496l48 -8q140 0 304 416q24 87 24 168q0 265 -160 448h-32q-13 0 -32 -56l-40 -8h-112q-79 -39 -128 -176q-32 -127 -32 -288zM633 573v104 q0 322 101.5 498.5t282.5 181.5q197 -75 208 -352v-16q0 -187 -272 -384l-200 -104v-24q0 -243 200 -288h64q210 0 440 384q37 124 64 128h24q48 -28 48 -80q-53 -160 -272 -416q-184 -150 -312 -168q-181 0 -320 256q-56 115 -56 280zM753 693l16 -16h8q122 0 288 216 q24 43 32 112q0 208 -128 208q-116 0 -208 -416z" />
<glyph unicode="&#x178;" horiz-adv-x="1101" d="M3 1597v8q0 49 56 88h24q163 -168 304 -368q385 -413 456 -448h16l16 304v240l-24 480q0 72 40 72q85 -36 120 -120v-88l-40 -1640l16 -384q0 -80 -80 -80q-72 15 -72 64l40 984q-149 97 -392 376q-248 266 -464 464zM300 1988v16q0 69 88.5 80.5t88.5 -73.5 q-8 -92 -92 -92q-85 8 -85 69zM564 2000v15q0 69 88.5 81t88.5 -73q-8 -92 -93 -92q-84 7 -84 69z" />
<glyph unicode="&#x2c6;" horiz-adv-x="1170" d="M83 1855v32q0 22 132 189q63 94 126 94q25 25 258 -316q-8 -32 -48 -32q-32 0 -80 48l-130 162l-210 -201q-40 0 -48 24z" />
<glyph unicode="&#x2dc;" horiz-adv-x="1024" d="M158 1706q109 -188 201 -103.5t209 144t215 37t129 -122.5t9 -134.5t-113.5 92.5t-291.5 -57t-315 -93.5t-43 237.5z" />
<glyph unicode="&#x2000;" horiz-adv-x="1202" />
<glyph unicode="&#x2001;" horiz-adv-x="2405" />
<glyph unicode="&#x2002;" horiz-adv-x="1202" />
<glyph unicode="&#x2003;" horiz-adv-x="2405" />
<glyph unicode="&#x2004;" horiz-adv-x="801" />
<glyph unicode="&#x2005;" horiz-adv-x="601" />
<glyph unicode="&#x2006;" horiz-adv-x="400" />
<glyph unicode="&#x2007;" horiz-adv-x="400" />
<glyph unicode="&#x2008;" horiz-adv-x="300" />
<glyph unicode="&#x2009;" horiz-adv-x="481" />
<glyph unicode="&#x200a;" horiz-adv-x="133" />
<glyph unicode="&#x2010;" horiz-adv-x="1145" d="M41 723q18 56 168 32h112l656 24q80 -25 76 -92t-188 -44h-8l-656 -48q-138 -16 -160 128z" />
<glyph unicode="&#x2011;" horiz-adv-x="1145" d="M41 723q18 56 168 32h112l656 24q80 -25 76 -92t-188 -44h-8l-656 -48q-138 -16 -160 128z" />
<glyph unicode="&#x2012;" horiz-adv-x="1145" d="M41 723q18 56 168 32h112l656 24q80 -25 76 -92t-188 -44h-8l-656 -48q-138 -16 -160 128z" />
<glyph unicode="&#x2013;" horiz-adv-x="1262" d="M41 723q18 56 168 32h112l773 19q80 -25 76 -92t-188 -44h-8l-773 -43q-138 -16 -160 128z" />
<glyph unicode="&#x2014;" horiz-adv-x="1500" d="M41 723q18 56 168 32h112h997q80 -25 76 -92t-188 -44h-8l-997 -24q-138 -16 -160 128z" />
<glyph unicode="&#x2018;" horiz-adv-x="346" d="M78 1920q8 72 56 72q104 0 104 -328l16 -312q-13 -40 -48 -40q-92 0 -128 608z" />
<glyph unicode="&#x2019;" horiz-adv-x="346" d="M78 1352l16 312q0 328 104 328q48 0 56 -72q-36 -608 -128 -608q-35 0 -48 40z" />
<glyph unicode="&#x201a;" horiz-adv-x="346" d="M86 -305l16 312q0 328 104 328q48 0 56 -72q-36 -608 -128 -608q-35 0 -48 40z" />
<glyph unicode="&#x201c;" horiz-adv-x="672" d="M154 1545v144q0 88 24 88h8q40 0 120 -480q34 -56 48 -56l16 -32q0 -45 -64 -80q-113 0 -152 416zM466 1761v24q13 64 40 64q96 0 96 -184q18 -432 48 -432q-14 -56 -72 -56h-8q-78 0 -104 584z" />
<glyph unicode="&#x201d;" horiz-adv-x="672" d="M154 1233q30 0 48 432q0 184 96 184q28 0 40 -64v-24q-26 -584 -104 -584h-8q-58 0 -72 56zM434 1209l16 32q14 0 48 56q80 480 120 480h8q24 0 24 -88v-144q-39 -416 -152 -416q-64 35 -64 80z" />
<glyph unicode="&#x201e;" horiz-adv-x="672" d="M88 -243q30 0 48 432q0 184 96 184q28 0 40 -64v-24q-26 -584 -104 -584h-8q-58 0 -72 56zM368 -267l16 32q14 0 48 56q80 480 120 480h8q24 0 24 -88v-144q-39 -416 -152 -416q-64 35 -64 80z" />
<glyph unicode="&#x2022;" horiz-adv-x="570" d="M153 1017v27q0 121 175 228h40q94 -67 94 -215q-14 -161 -161 -161q-148 14 -148 121z" />
<glyph unicode="&#x2026;" horiz-adv-x="1301" d="M259 64v16q0 72 104 136h24q56 -40 56 -128q-8 -96 -96 -96q-88 8 -88 72zM672 76v16q0 72 104 136h24q56 -40 56 -128q-8 -96 -96 -96q-88 8 -88 72zM1030 72v16q0 72 104 136h24q56 -40 56 -128q-8 -96 -96 -96q-88 8 -88 72z" />
<glyph unicode="&#x202f;" horiz-adv-x="481" />
<glyph unicode="&#x2039;" horiz-adv-x="765" d="M25 659q0 63 176 184q353 297 375 297h32q24 -8 24 -48q0 -72 -436 -433q80 -101 376 -312l75 -45q48 -48 48 -80q0 -40 -32 -48q-190 96 -414 240.5t-224 244.5z" />
<glyph unicode="&#x203a;" horiz-adv-x="760" d="M62 221q0 32 48 80l75 45q296 211 376 312q-436 361 -436 433q0 40 24 48h32q22 0 375 -297q176 -121 176 -184q0 -100 -224 -244.5t-414 -240.5q-32 8 -32 48z" />
<glyph unicode="&#x205f;" horiz-adv-x="601" />
<glyph unicode="&#x20ac;" horiz-adv-x="1261" d="M34 915q14 88 152 64h72q184 0 336 24q59 -16 80 -56v-32q0 -33 -448 -112q-192 24 -192 112zM62 694q0 72 232 72h56q406 13 406 -27v-16q0 -46 -598 -141q-96 33 -96 112zM248 976q0 478 200 736q134 112 232 112q104 0 184 -104v-32l-64 -64l-64 32q-178 0 -240 -152 q-128 -190 -128 -544q0 -530 232 -784q53 -48 104 -48h32q225 0 318 275q88 234 144 132.5t-174 -383.5q-157 -152 -280 -152q-375 0 -496 976z" />
<glyph unicode="&#x2122;" horiz-adv-x="1497" />
<glyph unicode="&#x25fc;" horiz-adv-x="1290" d="M0 0v1290h1290v-1290h-1290z" />
</font>
</defs>
</svg>
