<?xml version="1.0" standalone="no"?>
<!DOCTYPE svg PUBLIC "-//W3C//DTD SVG 1.1//EN" "http://www.w3.org/Graphics/SVG/1.1/DTD/svg11.dtd" >
<svg xmlns="http://www.w3.org/2000/svg" xmlns:xlink="http://www.w3.org/1999/xlink" version="1.1">
<metadata></metadata>
<defs>
<font id="alien_encounters_solidBdIt" horiz-adv-x="1351" >
<font-face units-per-em="2048" ascent="1638" descent="-410" />
<missing-glyph horiz-adv-x="512" />
<glyph horiz-adv-x="0" />
<glyph unicode="&#xd;" horiz-adv-x="512" />
<glyph unicode=" "  horiz-adv-x="512" />
<glyph unicode="&#x09;" horiz-adv-x="512" />
<glyph unicode="&#xa0;" horiz-adv-x="512" />
<glyph unicode="!" horiz-adv-x="430" d="M47 -10l113 307h327l-112 -307h-328zM227 481l351 963h327l-350 -963h-328z" />
<glyph unicode="&#x22;" horiz-adv-x="819" d="M465 1137l113 307h327l-172 -471h-174l59 164h-153zM854 1137l113 307h327l-172 -471h-174l60 164h-154z" />
<glyph unicode="'" horiz-adv-x="430" d="M465 1137l113 307h327l-172 -471h-174l59 164h-153z" />
<glyph unicode="," horiz-adv-x="430" d="M47 -10l113 307h327l-172 -471h-174l60 164h-154z" />
<glyph unicode="." horiz-adv-x="430" d="M47 -10l113 307h327l-112 -307h-328z" />
<glyph unicode="0" horiz-adv-x="1249" d="M113 131q0 35 12 74l373 1024q33 88 118.5 151.5t176.5 63.5h716q68 0 109 -39t41 -102q0 -35 -14 -74l-373 -1024q-31 -88 -117 -151.5t-176 -63.5h-717q-68 0 -108.5 39t-40.5 102zM487 297h492l305 840h-491z" />
<glyph unicode="1" horiz-adv-x="634" d="M252 -10l418 1147h-205l113 307h532l-530 -1454h-328z" />
<glyph unicode="2" horiz-adv-x="1249" d="M47 -10l272 747q33 88 119 151.5t174 63.5h605l67 185h-819l113 307h931q68 0 109 -39t41 -102q0 -35 -14 -74l-134 -369q-33 -88 -118.5 -151.5t-173.5 -63.5h-605l-127 -348h820l-113 -307h-1147z" />
<glyph unicode="3" horiz-adv-x="1249" d="M47 -10l113 307h819l127 348h-410l111 307h410l67 185h-819l113 307h931q68 0 109 -39t41 -102q0 -35 -14 -74l-82 -225q-25 -72 -87.5 -128.5t-136.5 -76.5q88 -33 88 -131q0 -35 -12 -74l-143 -389q-31 -88 -117 -151.5t-176 -63.5h-932z" />
<glyph unicode="4" horiz-adv-x="1249" d="M287 645l291 799h327l-180 -492h389l180 492h328l-180 -492h102l-110 -307h-103l-239 -655h-328l240 655h-717z" />
<glyph unicode="5" horiz-adv-x="1249" d="M47 -10l113 307h819l127 348h-604q-70 0 -111 39t-41 102q0 35 15 74l213 584h1146l-112 -307h-819l-68 -185h604q70 0 111 -39t41 -102q0 -35 -15 -74l-194 -532q-31 -88 -117 -151.5t-176 -63.5h-932z" />
<glyph unicode="6" horiz-adv-x="1249" d="M113 131q0 35 12 74l373 1024q33 88 118.5 151.5t176.5 63.5h829l-113 -307h-716l-68 -185h604q70 0 111 -39t41 -102q0 -35 -15 -74l-194 -532q-31 -88 -117 -151.5t-176 -63.5h-717q-68 0 -108.5 39t-40.5 102zM487 297h492l127 348h-492z" />
<glyph unicode="7" horiz-adv-x="1249" d="M465 1137l113 307h931q68 0 109 -39t41 -102q0 -35 -14 -74l-451 -1239h-328l418 1147h-819z" />
<glyph unicode="8" horiz-adv-x="1249" d="M113 131q0 35 12 74l143 389q25 72 87.5 128t136.5 77q-88 33 -89 131q0 35 13 74l82 225q33 88 118.5 151.5t176.5 63.5h716q68 0 109 -39t41 -102q0 -35 -14 -74l-82 -225q-25 -72 -87.5 -128.5t-136.5 -76.5q88 -33 88 -131q0 -35 -12 -74l-143 -389 q-31 -88 -117 -151.5t-176 -63.5h-717q-68 0 -108.5 39t-40.5 102zM487 297h492l127 348h-492zM725 952h492l67 185h-491z" />
<glyph unicode="9" horiz-adv-x="1249" d="M150 -10l112 307h717l68 184h-605q-70 0 -110.5 39t-40.5 103q0 35 14 73l193 533q33 88 118.5 151.5t176.5 63.5h716q68 0 109 -39t41 -102q0 -35 -14 -74l-373 -1024q-31 -88 -117 -151.5t-176 -63.5h-829zM666 788h491l127 349h-491z" />
<glyph unicode=":" horiz-adv-x="430" d="M47 -10l113 307h327l-112 -307h-328zM287 645l110 307h328l-111 -307h-327z" />
<glyph unicode=";" horiz-adv-x="430" d="M47 -10l113 307h327l-172 -471h-174l60 164h-154zM287 645l110 307h328l-111 -307h-327z" />
<glyph unicode="?" horiz-adv-x="1044" d="M47 -10l113 307h327l-112 -307h-328zM227 481l92 256q33 88 119 151.5t174 63.5h400l67 185h-614l113 307h727q68 0 108.5 -39t40.5 -102q0 -35 -14 -74l-133 -369q-33 -88 -119 -151.5t-174 -63.5h-400l-59 -164h-328z" />
<glyph unicode="A" horiz-adv-x="1536" d="M-18 -10l1110 1454h403l53 -1454h-370l-13 327h-563l-250 -327h-370zM836 625h319l-14 399z" />
<glyph unicode="B" d="M47 -10l531 1454h1034q68 0 108.5 -39t40.5 -102q0 -35 -14 -74l-82 -225q-25 -72 -87 -128.5t-136 -76.5q88 -33 88 -131q0 -35 -12 -74l-144 -389q-31 -88 -117 -151.5t-176 -63.5h-1034zM487 297h594l127 348h-594zM725 952h594l67 185h-593z" />
<glyph unicode="C" horiz-adv-x="1249" d="M113 131q0 35 12 74l373 1024q33 88 118.5 151.5t176.5 63.5h931l-112 -307h-819l-306 -840h820l-113 -307h-932q-68 0 -108.5 39t-40.5 102z" />
<glyph unicode="D" d="M47 -10l531 1454h1034q68 0 108.5 -39t40.5 -102q0 -35 -14 -74l-373 -1024q-31 -88 -117 -151.5t-176 -63.5h-1034zM487 297h594l305 840h-593z" />
<glyph unicode="E" horiz-adv-x="1249" d="M113 131q0 35 12 74l373 1024q33 88 118.5 151.5t176.5 63.5h931l-112 -307h-819l-68 -185h819l-110 -307h-820l-127 -348h820l-113 -307h-932q-68 0 -108.5 39t-40.5 102z" />
<glyph unicode="F" horiz-adv-x="1249" d="M47 -10l451 1239q33 88 118.5 151.5t176.5 63.5h931l-112 -307h-819l-68 -185h819l-110 -307h-820l-239 -655h-328z" />
<glyph unicode="G" d="M113 131q0 35 12 74l373 1024q33 88 118.5 151.5t176.5 63.5h1034l-113 -307h-921l-306 -840h594l127 348h-409l110 307h738l-351 -962h-1034q-68 0 -108.5 39t-40.5 102z" />
<glyph unicode="H" d="M47 -10l531 1454h327l-180 -492h594l180 492h328l-531 -1454h-327l239 655h-594l-239 -655h-328z" />
<glyph unicode="I" horiz-adv-x="430" d="M47 -10l531 1454h327l-530 -1454h-328z" />
<glyph unicode="J" d="M113 131q0 35 12 74l154 420h327l-119 -328h594l418 1147h328l-453 -1239q-31 -88 -117 -151.5t-176 -63.5h-819q-68 0 -108.5 39t-40.5 102z" />
<glyph unicode="K" horiz-adv-x="1474" d="M47 -10l531 1454h327l-319 -879l958 879h414l-793 -727l265 -727h-414l-162 442l-483 -442h-324z" />
<glyph unicode="L" horiz-adv-x="1249" d="M113 131q0 35 12 74l453 1239h327l-418 -1147h820l-113 -307h-932q-68 0 -108.5 39t-40.5 102z" />
<glyph unicode="M" horiz-adv-x="1679" d="M47 -10l531 1454h323l111 -961l817 961h325l-530 -1454h-328l248 682l-579 -682h-258l-84 682l-248 -682h-328z" />
<glyph unicode="N" d="M47 -10l531 1454h321l295 -838l305 838h328l-531 -1454h-321l-295 837l-305 -837h-328z" />
<glyph unicode="O" d="M113 131q0 35 12 74l373 1024q33 88 118.5 151.5t176.5 63.5h819q68 0 108.5 -39t40.5 -102q0 -35 -14 -74l-373 -1024q-31 -88 -117 -151.5t-176 -63.5h-819q-68 0 -108.5 39t-40.5 102zM487 297h594l305 840h-593z" />
<glyph unicode="P" d="M47 -10l531 1454h1034q68 0 108.5 -39t40.5 -102q0 -35 -14 -74l-133 -369q-33 -88 -119 -151.5t-174 -63.5h-707l-239 -655h-328zM725 952h594l67 185h-593z" />
<glyph unicode="Q" horiz-adv-x="1556" d="M113 131q0 35 12 74l373 1024q33 88 118.5 151.5t176.5 63.5h819q68 0 108.5 -39t40.5 -102q0 -35 -14 -74l-338 -932h205l-113 -307h-1239q-68 0 -108.5 39t-40.5 102zM487 297h594l305 840h-593z" />
<glyph unicode="R" d="M47 -10l531 1454h1034q68 0 108.5 -39t40.5 -102q0 -35 -14 -74l-82 -225q-25 -72 -87 -128.5t-136 -76.5q88 -33 88 -131q0 -35 -12 -74l-222 -604h-327l239 655h-594l-239 -655h-328zM725 952h594l67 185h-593z" />
<glyph unicode="S" d="M47 -10l113 307h921l127 348h-706q-70 0 -111 39t-41 102q0 35 15 74l133 369q33 88 118.5 151.5t176.5 63.5h1034l-113 -307h-921l-68 -185h707q70 0 110.5 -39t40.5 -102q0 -35 -14 -74l-195 -532q-31 -88 -117 -151.5t-176 -63.5h-1034z" />
<glyph unicode="T" d="M465 1137l113 307h1249l-113 -307h-440l-418 -1147h-328l418 1147h-481z" />
<glyph unicode="U" d="M113 131q0 35 12 74l453 1239h327l-418 -1147h594l418 1147h328l-453 -1239q-31 -88 -117 -151.5t-176 -63.5h-819q-68 0 -108.5 39t-40.5 102z" />
<glyph unicode="V" horiz-adv-x="1536" d="M510 1444h371l37 -1034l788 1034h371l-1110 -1454h-404z" />
<glyph unicode="W" horiz-adv-x="2150" d="M510 1444h371l37 -1034l233 307l-27 727h371l10 -264l201 264h371l-555 -727l10 -307l788 1034h371l-1110 -1454h-403l-11 264l-200 -264h-404z" />
<glyph unicode="X" horiz-adv-x="1556" d="M37 -10l794 727l-264 727h414l162 -443l483 443h414l-793 -727l264 -727h-413l-162 442l-483 -442h-416z" />
<glyph unicode="Y" horiz-adv-x="1556" d="M567 1444h414l162 -443l483 443h414l-860 -793l-242 -661h-328l242 661z" />
<glyph unicode="Z" d="M47 -10l111 301l1077 846h-770l113 307h1249l-111 -301l-1077 -846h770l-113 -307h-1249z" />
<glyph unicode="a" horiz-adv-x="1536" d="M-18 -10l1110 1454h403l53 -1454h-370l-13 327h-563l-250 -327h-370zM836 625h319l-14 399z" />
<glyph unicode="b" d="M47 -10l531 1454h1034q68 0 108.5 -39t40.5 -102q0 -35 -14 -74l-82 -225q-25 -72 -87 -128.5t-136 -76.5q88 -33 88 -131q0 -35 -12 -74l-144 -389q-31 -88 -117 -151.5t-176 -63.5h-1034zM487 297h594l127 348h-594zM725 952h594l67 185h-593z" />
<glyph unicode="c" horiz-adv-x="1249" d="M113 131q0 35 12 74l373 1024q33 88 118.5 151.5t176.5 63.5h931l-112 -307h-819l-306 -840h820l-113 -307h-932q-68 0 -108.5 39t-40.5 102z" />
<glyph unicode="d" d="M47 -10l531 1454h1034q68 0 108.5 -39t40.5 -102q0 -35 -14 -74l-373 -1024q-31 -88 -117 -151.5t-176 -63.5h-1034zM487 297h594l305 840h-593z" />
<glyph unicode="e" horiz-adv-x="1249" d="M113 131q0 35 12 74l373 1024q33 88 118.5 151.5t176.5 63.5h931l-112 -307h-819l-68 -185h819l-110 -307h-820l-127 -348h820l-113 -307h-932q-68 0 -108.5 39t-40.5 102z" />
<glyph unicode="f" horiz-adv-x="1249" d="M47 -10l451 1239q33 88 118.5 151.5t176.5 63.5h931l-112 -307h-819l-68 -185h819l-110 -307h-820l-239 -655h-328z" />
<glyph unicode="g" d="M113 131q0 35 12 74l373 1024q33 88 118.5 151.5t176.5 63.5h1034l-113 -307h-921l-306 -840h594l127 348h-409l110 307h738l-351 -962h-1034q-68 0 -108.5 39t-40.5 102z" />
<glyph unicode="h" d="M47 -10l531 1454h327l-180 -492h594l180 492h328l-531 -1454h-327l239 655h-594l-239 -655h-328z" />
<glyph unicode="i" horiz-adv-x="430" d="M47 -10l531 1454h327l-530 -1454h-328z" />
<glyph unicode="j" d="M113 131q0 35 12 74l154 420h327l-119 -328h594l418 1147h328l-453 -1239q-31 -88 -117 -151.5t-176 -63.5h-819q-68 0 -108.5 39t-40.5 102z" />
<glyph unicode="k" horiz-adv-x="1474" d="M47 -10l531 1454h327l-319 -879l958 879h414l-793 -727l265 -727h-414l-162 442l-483 -442h-324z" />
<glyph unicode="l" horiz-adv-x="1249" d="M113 131q0 35 12 74l453 1239h327l-418 -1147h820l-113 -307h-932q-68 0 -108.5 39t-40.5 102z" />
<glyph unicode="m" horiz-adv-x="1679" d="M47 -10l531 1454h323l111 -961l817 961h325l-530 -1454h-328l248 682l-579 -682h-258l-84 682l-248 -682h-328z" />
<glyph unicode="n" d="M47 -10l531 1454h321l295 -838l305 838h328l-531 -1454h-321l-295 837l-305 -837h-328z" />
<glyph unicode="o" d="M113 131q0 35 12 74l373 1024q33 88 118.5 151.5t176.5 63.5h819q68 0 108.5 -39t40.5 -102q0 -35 -14 -74l-373 -1024q-31 -88 -117 -151.5t-176 -63.5h-819q-68 0 -108.5 39t-40.5 102zM487 297h594l305 840h-593z" />
<glyph unicode="p" d="M47 -10l531 1454h1034q68 0 108.5 -39t40.5 -102q0 -35 -14 -74l-133 -369q-33 -88 -119 -151.5t-174 -63.5h-707l-239 -655h-328zM725 952h594l67 185h-593z" />
<glyph unicode="q" horiz-adv-x="1556" d="M113 131q0 35 12 74l373 1024q33 88 118.5 151.5t176.5 63.5h819q68 0 108.5 -39t40.5 -102q0 -35 -14 -74l-338 -932h205l-113 -307h-1239q-68 0 -108.5 39t-40.5 102zM487 297h594l305 840h-593z" />
<glyph unicode="r" d="M47 -10l531 1454h1034q68 0 108.5 -39t40.5 -102q0 -35 -14 -74l-82 -225q-25 -72 -87 -128.5t-136 -76.5q88 -33 88 -131q0 -35 -12 -74l-222 -604h-327l239 655h-594l-239 -655h-328zM725 952h594l67 185h-593z" />
<glyph unicode="s" d="M47 -10l113 307h921l127 348h-706q-70 0 -111 39t-41 102q0 35 15 74l133 369q33 88 118.5 151.5t176.5 63.5h1034l-113 -307h-921l-68 -185h707q70 0 110.5 -39t40.5 -102q0 -35 -14 -74l-195 -532q-31 -88 -117 -151.5t-176 -63.5h-1034z" />
<glyph unicode="t" d="M465 1137l113 307h1249l-113 -307h-440l-418 -1147h-328l418 1147h-481z" />
<glyph unicode="u" d="M113 131q0 35 12 74l453 1239h327l-418 -1147h594l418 1147h328l-453 -1239q-31 -88 -117 -151.5t-176 -63.5h-819q-68 0 -108.5 39t-40.5 102z" />
<glyph unicode="v" horiz-adv-x="1536" d="M510 1444h371l37 -1034l788 1034h371l-1110 -1454h-404z" />
<glyph unicode="w" horiz-adv-x="2150" d="M510 1444h371l37 -1034l233 307l-27 727h371l10 -264l201 264h371l-555 -727l10 -307l788 1034h371l-1110 -1454h-403l-11 264l-200 -264h-404z" />
<glyph unicode="x" horiz-adv-x="1556" d="M37 -10l794 727l-264 727h414l162 -443l483 443h414l-793 -727l264 -727h-413l-162 442l-483 -442h-416z" />
<glyph unicode="y" horiz-adv-x="1556" d="M567 1444h414l162 -443l483 443h414l-860 -793l-242 -661h-328l242 661z" />
<glyph unicode="z" d="M47 -10l111 301l1077 846h-770l113 307h1249l-111 -301l-1077 -846h770l-113 -307h-1249z" />
<glyph unicode="&#x2000;" horiz-adv-x="722" />
<glyph unicode="&#x2001;" horiz-adv-x="1444" />
<glyph unicode="&#x2002;" horiz-adv-x="722" />
<glyph unicode="&#x2003;" horiz-adv-x="1444" />
<glyph unicode="&#x2004;" horiz-adv-x="481" />
<glyph unicode="&#x2005;" horiz-adv-x="361" />
<glyph unicode="&#x2006;" horiz-adv-x="240" />
<glyph unicode="&#x2007;" horiz-adv-x="240" />
<glyph unicode="&#x2008;" horiz-adv-x="180" />
<glyph unicode="&#x2009;" horiz-adv-x="288" />
<glyph unicode="&#x200a;" horiz-adv-x="80" />
<glyph unicode="&#x2018;" horiz-adv-x="430" d="M406 973l172 471h174l-62 -164h154l-111 -307h-327z" />
<glyph unicode="&#x2019;" horiz-adv-x="430" d="M465 1137l113 307h327l-172 -471h-174l59 164h-153z" />
<glyph unicode="&#x201a;" horiz-adv-x="430" d="M47 -10l113 307h327l-172 -471h-174l60 164h-154z" />
<glyph unicode="&#x201c;" horiz-adv-x="819" d="M406 973l172 471h174l-62 -164h154l-111 -307h-327zM795 973l172 471h174l-62 -164h154l-111 -307h-327z" />
<glyph unicode="&#x201d;" horiz-adv-x="819" d="M465 1137l113 307h327l-172 -471h-174l59 164h-153zM854 1137l113 307h327l-172 -471h-174l60 164h-154z" />
<glyph unicode="&#x201e;" horiz-adv-x="819" d="M47 -10l113 307h327l-172 -471h-174l60 164h-154zM436 -10l113 307h328l-172 -471h-175l60 164h-154z" />
<glyph unicode="&#x202f;" horiz-adv-x="288" />
<glyph unicode="&#x205f;" horiz-adv-x="361" />
<glyph unicode="&#x25fc;" horiz-adv-x="1443" d="M0 0v1444h1444v-1444h-1444z" />
</font>
</defs>
</svg>
